<?xml version="1.0" standalone="no"?>
<!DOCTYPE svg PUBLIC "-//W3C//DTD SVG 1.1//EN" "http://www.w3.org/Graphics/SVG/1.1/DTD/svg11.dtd" >
<svg xmlns="http://www.w3.org/2000/svg">
<metadata>
Created by FontForge 20120731 at Wed Jun 22 10:29:49 2016
 By admin
</metadata>
<defs>
<font id="iconfont" horiz-adv-x="1024" >
  <font-face 
    font-family="iconfont"
    font-weight="500"
    font-stretch="normal"
    units-per-em="1024"
    panose-1="2 0 6 3 0 0 0 0 0 0"
    ascent="896"
    descent="-128"
    x-height="792"
    bbox="0 -212 1024 896"
    underline-thickness="50"
    underline-position="-100"
    unicode-range="U+0078-E63A"
  />
<missing-glyph horiz-adv-x="374" 
d="M34 0v682h272v-682h-272zM68 34h204v614h-204v-614z" />
    <glyph glyph-name=".notdef" horiz-adv-x="374" 
d="M34 0v682h272v-682h-272zM68 34h204v614h-204v-614z" />
    <glyph glyph-name=".null" horiz-adv-x="0" 
 />
    <glyph glyph-name="nonmarkingreturn" horiz-adv-x="341" 
 />
    <glyph glyph-name="x" unicode="x" horiz-adv-x="1001" 
d="M281 543q-27 -1 -53 -1h-83q-18 0 -36.5 -6t-32.5 -18.5t-23 -32t-9 -45.5v-76h912v41q0 16 -0.5 30t-0.5 18q0 13 -5 29t-17 29.5t-31.5 22.5t-49.5 9h-133v-97h-438v97zM955 310v-52q0 -23 0.5 -52t0.5 -58t-10.5 -47.5t-26 -30t-33 -16t-31.5 -4.5q-14 -1 -29.5 -0.5
t-29.5 0.5h-32l-45 128h-439l-44 -128h-29h-34q-20 0 -45 1q-25 0 -41 9.5t-25.5 23t-13.5 29.5t-4 30v167h911zM163 247q-12 0 -21 -8.5t-9 -21.5t9 -21.5t21 -8.5q13 0 22 8.5t9 21.5t-9 21.5t-22 8.5zM316 123q-8 -26 -14 -48q-5 -19 -10.5 -37t-7.5 -25t-3 -15t1 -14.5
t9.5 -10.5t21.5 -4h37h67h81h80h64h36q23 0 34 12t2 38q-5 13 -9.5 30.5t-9.5 34.5q-5 19 -11 39h-368zM336 498v228q0 11 2.5 23t10 21.5t20.5 15.5t34 6h188q31 0 51.5 -14.5t20.5 -52.5v-227h-327z" />
    <glyph glyph-name="uniE600" unicode="&#xe600;" 
d="M713 -63q-16 0 -28 11l-405 407q-12 11 -12 27.5t11 28.5l406 409q11 12 28 12t28.5 -11.5t12 -28t-11.5 -28.5l-377 -380l377 -379q11 -11 11.5 -28t-11.5 -28.5t-29 -11.5z" />
    <glyph glyph-name="uniE601" unicode="&#xe601;" 
d="M512 -169q-217 0 -316 78t-99 241q0 133 90 256t218 167h214q128 -44 218 -167t90 -256q0 -163 -99 -241t-316 -78zM627 184q15 0 25 10.5t10 25t-10 25t-25 10.5h-71v1v1l83 85q17 19 -7 42q-10 11 -24.5 12.5t-22.5 -7.5l-72 -76l-78 77q-7 7 -19.5 5t-23 -12
t-12.5 -22.5t6 -20.5l79 -79q-2 -3 -3 -6h-65v0q-14 0 -24.5 -10.5t-10.5 -25t10.5 -25t24.5 -10.5v0h71v-35h-71v0q-14 0 -24.5 -10.5t-10.5 -25t10.5 -25t24.5 -10.5v0h71v-36h1q-1 -4 -1 -8q0 -18 13 -31t31 -13t31 13t13 31q0 4 -1 8h1v36h71q15 0 25 10.5t10 25t-10 25
t-25 10.5h-71v35h71zM680 714l-8 -9v-1l-63 -78h-212l-63 78q-1 1 -1 2l-7 8l2 3q-2 5 -2 6q0 18 17 25l1 1q87 18 159 18q34 0 73.5 -4.5t62.5 -8.5l23 -5l1 -1q17 -7 17 -25q0 -1 -1 -6zM680 714z" />
    <glyph glyph-name="uniE602" unicode="&#xe602;" 
d="M929 35q0 -11 -8.5 -19t-20.5 -8h-793q-12 0 -20.5 8t-8.5 19v611q0 11 8.5 19t20.5 8h186v41h-186q-29 0 -49.5 -20t-20.5 -48v-611q0 -28 20.5 -48t49.5 -20h793q29 0 49.5 20t20.5 48v210h-41v-210zM450 172q-2 6 -3 21t0.5 51.5t8.5 74t26.5 87t49.5 92.5
q130 185 435 238l7 -44q-286 -49 -405 -219q-27 -39 -44.5 -85t-24 -80t-7.5 -70t0 -46.5t2 -19.5h-45zM848 463l-38 24l146 229l-250 136l21 39l292 -158z" />
    <glyph glyph-name="uniE603" unicode="&#xe603;" 
d="M512 748q-91 0 -174 -35.5t-143 -95.5t-95.5 -143t-35.5 -174t35.5 -174t95.5 -143.5t143 -96t174 -35.5t174 35.5t143 96t95.5 143.5t35.5 174t-35.5 174t-95.5 143t-143 95.5t-174 35.5zM512 -21q-20 0 -34 14t-14 34t14 34t34 14t34 -14t14 -34t-14 -34t-34 -14z
M601 306q-19 -18 -28.5 -28.5t-19 -26t-9.5 -27.5v-54q0 -13 -9.5 -22.5t-22.5 -9.5t-22.5 9.5t-9.5 22.5v54q0 24 13 49.5t25.5 40t36.5 38.5q18 17 26.5 26.5t17.5 23.5t9 24q0 40 -28 68.5t-68 28.5t-68 -27.5t-28 -67.5q0 -13 -9.5 -22.5t-22.5 -9.5t-22.5 9.5
t-9.5 22.5q0 66 47 112.5t113 46.5t113 -47.5t47 -113.5q0 -22 -12 -45.5t-24 -37t-35 -37.5z" />
    <glyph glyph-name="uniE604" unicode="&#xe604;" 
d="M592 -44v255h-159v-255l-13 -1h-227q-20 0 -31.5 12t-11.5 32q-1 138 0 314q0 9 8 16q50 44 206 181q15 13 43 37.5t50.5 44.5t42.5 38q2 1 6 4.5t6 4.5q68 -59 82 -71q225 -197 267 -234q14 -12 14 -30v-298q0 -31 -19 -44q-10 -7 -19 -7h-240q-1 0 -5 1v0zM1005 402
q14 -13 14.5 -22t-11.5 -24l-14 -18q-10 -12 -15 -19q-17 -20 -37 -3q-72 65 -211 188t-204 180q-2 3 -7.5 7.5t-7.5 6.5q-7 -7 -41 -37t-52 -46q-42 -37 -158 -139.5t-179 -158.5q-11 -10 -19.5 -9.5t-17.5 12.5q-17 20 -32 40q-9 11 -8.5 20t11.5 19q31 27 188 166
q250 222 252 223q56 50 113 0z" />
    <glyph glyph-name="uniE605" unicode="&#xe605;" 
d="M628 788zM361 346q18 -24 41 -40.5t45.5 -23t37 -8.5t26.5 -2h2q12 0 26.5 2t37 8.5t45.5 23t41 40.5q22 31 48 99q45 53 34 100q-6 24 -24 40q8 69 -9 118q-30 80 -105 111q-43 19 -90 19h-2h-3h-3h-2q-47 0 -90 -19q-75 -31 -105 -111q-17 -49 -9 -118q-18 -16 -24 -40
q-11 -47 34 -100q26 -68 48 -99zM569 215l-26 29h-62l-26 -29q15 -31 39 -44l-39 -98q29 -41 57 -51q13 4 27 17t22 23t8 11l-39 98q11 6 20.5 17t14.5 19zM918 140q-21 27 -86.5 53t-116 38.5t-55.5 12.5q6 -35 1 -65t-18 -56.5t-29.5 -47.5t-34.5 -38t-33 -28t-24 -17
l-10 -6q-7 4 -19 11.5t-40.5 33t-49 53.5t-34 71.5t-5.5 88.5q-9 -2 -23.5 -5t-53 -14t-71 -22t-65 -28.5t-45.5 -34.5q-53 -67 -41 -153q4 -23 14 -34.5t39 -17.5h788q29 6 39 17.5t14 34.5q12 86 -41 153zM918 140z" />
    <glyph glyph-name="uniE606" unicode="&#xe606;" 
d="M614 558h-203q-120 -42 -204.5 -157.5t-84.5 -240.5q0 -153 93 -227t297.5 -74t297.5 74t93 227q0 125 -85 240.5t-204 157.5zM792 -42q-42 -34 -110 -51q-70 -17 -169.5 -17t-169.5 17q-68 17 -111 51q-40 32 -60 81q-20 50 -20 121q0 115 79 223q38 51 87 89
q47 37 99 55h191q52 -18 99 -55q49 -38 87 -89q79 -108 79 -223q0 -71 -20 -121q-20 -49 -61 -81zM346 680l7 -9v-1t1 -1l59 -89h199l59 89l1 1l7 10l-1 3q1 6 1 7q0 21 -16 28l-1 2q-77 20 -148 20h-2q-30 0 -67.5 -5t-59.5 -10l-22 -5l-1 -2q-16 -7 -16 -28q0 -1 1 -7z
M376 691v1q1 0 2 1q78 17 135 17h1q58 0 133 -17l1 -1v-2v-2l-1 -1l-1 -1l-50 -75h-167l-50 75l-1 1l-1 1v2zM625 234q6 0 10.5 4.5t4.5 11t-4.5 11t-10.5 4.5h-97v17l90 91q11 10 0.5 21t-21.5 0l-85 -85l-84 85q-11 11 -21.5 0t-0.5 -21l91 -91v-17h-97q-6 0 -10.5 -4.5
t-4.5 -11t4.5 -11t10.5 -4.5h97v-66h-97q-6 0 -10.5 -4t-4.5 -10.5t4.5 -11t10.5 -4.5h97v-69q0 -6 4.5 -10.5t10.5 -4.5q7 0 11.5 4.5t4.5 10.5v69h97q6 0 10.5 4.5t4.5 11t-4.5 10.5t-10.5 4h-97v66h97zM614 558h-203q-120 -42 -204.5 -157.5t-84.5 -240.5q0 -153 93 -227
t297.5 -74t297.5 74t93 227q0 125 -85 240.5t-204 157.5zM792 -42q-42 -34 -110 -51q-70 -17 -169.5 -17t-169.5 17q-68 17 -111 51q-40 32 -60 81q-20 50 -20 121q0 115 79 223q38 51 87 89q47 37 99 55h191q52 -18 99 -55q49 -38 87 -89q79 -108 79 -223q0 -71 -20 -121
q-20 -49 -61 -81zM346 680l7 -9v-1q0 -1 1 -1l59 -89h199l59 89l1 1l7 10l-1 3q1 6 1 7q0 21 -16 28l-1 2q-77 20 -148 20h-2q-30 0 -67.5 -5t-59.5 -10l-22 -5l-1 -2q-16 -7 -16 -28q0 -1 1 -7zM376 691v1q1 0 2 1q78 17 135 17h1q58 0 133 -17l1 -1v-2v-2l-1 -1l-1 -1
l-50 -75h-167l-50 75l-1 1l-1 1v2zM625 234q6 0 10.5 4.5t4.5 11t-4.5 11t-10.5 4.5h-97v17l90 91q11 10 0.5 21t-21.5 0l-85 -85l-84 85q-11 11 -21.5 0t-0.5 -21l91 -91v-17h-97q-6 0 -10.5 -4.5t-4.5 -11t4.5 -11t10.5 -4.5h97v-66h-97q-6 0 -10.5 -4t-4.5 -10.5t4.5 -11
t10.5 -4.5h97v-69q0 -6 4.5 -10.5t10.5 -4.5q7 0 11.5 4.5t4.5 10.5v69h97q6 0 10.5 4.5t4.5 11t-4.5 10.5t-10.5 4h-97v66h97z" />
    <glyph glyph-name="uniE607" unicode="&#xe607;" 
d="M778 479h-38v76q0 95 -66.5 162t-161.5 67t-161.5 -67t-66.5 -162v-76h-38q-32 0 -54.5 -22t-22.5 -54v-343q0 -31 22.5 -53.5t54.5 -22.5h532q32 0 54.5 22.5t22.5 53.5v343q0 32 -22.5 54t-54.5 22zM360 555q0 63 44.5 108t107.5 45t107.5 -45t44.5 -108v-76h-304v76z
M550 185v-48q0 -16 -11 -27t-27 -11t-27 11t-11 27v48q-38 22 -38 66q0 31 22 53.5t54 22.5t54 -22.5t22 -53.5q0 -44 -38 -66z" />
    <glyph glyph-name="uniE608" unicode="&#xe608;" 
d="M341 245q0 73 28 140h-212q-6 0 -6 6v69q0 6 6 6h235q6 0 6 -6v-21q43 69 112 112h-353q-6 0 -6 5v70q0 6 6 6h427q6 0 6 -6v-38q54 18 111 18q13 0 25 -1v192q0 11 -7.5 19t-19.5 8h-657q-11 0 -19 -8t-8 -19v-825q0 -11 8 -19t19 -8h460q-74 50 -117.5 129t-43.5 171z
M289 225q0 -6 -6 -6h-126q-6 0 -6 6v70q0 6 6 6h126q6 0 6 -6v-70zM701.5 546q-124.5 0 -213 -88t-88.5 -212.5t88.5 -213t213 -88.5t213 88.5t88.5 213t-88.5 212.5t-213 88zM821 262v-39h-95v-53h95v-40h-95v-78h-49v78h-99v40h99v53h-99v39h83l-91 166h55q3 -5 38.5 -78
t36.5 -76l81 154h52l-94 -166h82z" />
    <glyph glyph-name="uniE609" unicode="&#xe609;" 
d="M399 481q-49 5 -90 15.5t-76 25.5t-59 33t-37.5 39t-13.5 43q0 44 50.5 81.5t137 59t188.5 21.5q76 0 146 -13t120.5 -34.5t80 -51.5t29.5 -63q0 -44 -50 -81t-136.5 -59t-189.5 -22q-52 0 -100 6zM875 553v-104q-5 -43 -56 -78.5t-136 -56t-184 -20.5
q-151 0 -259.5 44.5t-116.5 110.5v104q14 -61 122 -103t254 -42t253.5 42t122.5 103zM570 238q35 2 67 8t61.5 13.5t54.5 17t46 21.5t36.5 25t25.5 27.5t14 29.5v-104q-4 -32 -35 -61t-81 -49.5t-118 -32.5t-142 -12q-151 0 -259.5 45t-116.5 110v104q15 -62 122.5 -103.5
t253.5 -41.5q36 0 71 3zM875 204v-101q-7 -65 -116.5 -110t-260 -45t-259 45t-116.5 110v101q18 -61 125 -102t251 -41t251.5 41t124.5 102z" />
    <glyph glyph-name="uniE60A" unicode="&#xe60a;" 
d="M606 319q-106 0 -181.5 75t-75.5 181.5t75.5 182t181.5 75.5t181.5 -75.5t75.5 -182t-75.5 -181.5t-181.5 -75zM606 794q-90 0 -154 -64t-64 -154.5t64 -154.5t154 -64t154 64t64 154.5t-64 154.5t-154 64zM1004.5 -82q-8.5 0 -14 5.5t-5.5 14.5q0 102 -51 189.5
t-138 138.5t-190 51t-190.5 -51t-138 -138.5t-50.5 -189.5q0 -9 -6 -14.5t-14 -5.5t-13.5 5.5t-5.5 14.5q0 113 56 209.5t152 152.5t209.5 56t210 -56t152.5 -152.5t56 -209.5q0 -9 -5.5 -14.5t-14 -5.5zM363 319q-93 0 -158.5 66t-65.5 159t65.5 158.5t158.5 65.5
q8 0 14 -5.5t6 -13.5t-6 -14t-14 -6q-76 0 -130.5 -54t-54.5 -131t54.5 -131.5t130.5 -54.5q8 0 14 -5.5t6 -13.5t-6 -14t-14 -6zM19.5 -26q-8.5 0 -14 5.5t-5.5 13.5q0 99 48.5 182.5t132.5 132.5t182 49q8 0 14 -6t6 -14t-6 -13.5t-14 -5.5q-88 0 -162.5 -43.5
t-118 -118.5t-43.5 -163q0 -8 -5.5 -13.5t-14 -5.5z" />
    <glyph glyph-name="uniE60B" unicode="&#xe60b;" 
d="M513 834q-91 0 -174 -35.5t-143 -95.5t-95.5 -143t-35.5 -174.5t35.5 -174.5t95.5 -143t143 -95.5t174 -35.5t174.5 35.5t143.5 95.5t95.5 143t35.5 174.5t-35.5 174.5t-95.5 143t-143.5 95.5t-174.5 35.5zM696 361l-158 -159q-8 -8 -20 -8t-20 8.5t-8 20t8 19.5l116 116
h-297q-12 0 -20 8t-8 19.5t8 20t20 8.5h297l-116 115q-8 8 -8 20t8 20t20 8t20 -8l158 -159q10 -10 8 -24q2 -15 -8 -25z" />
    <glyph glyph-name="uniE60C" unicode="&#xe60c;" 
d="M955.5 408.5q-6.5 18.5 -25.5 21.5l-269 42l-121 258q-8 18 -29 18q-20 0 -29 -18l-121 -257l-270 -41q-19 -3 -25.5 -21.5t7.5 -32.5l196 -201l-47 -284q-3 -20 13 -31.5t34 -1.5l241 132l241 -133q7 -4 15 -4h1q13 0 22.5 9t9.5 23q0 6 -2 11l-45 278l196 201
q14 13 7.5 31.5z" />
    <glyph glyph-name="uniE60D" unicode="&#xe60d;" 
d="M791 -24h-558q-36 0 -61 25t-25 61v258q0 35 25 60t61 25h558q36 0 61 -25t25 -60v-258q0 -36 -25 -61t-61 -25zM834 320q0 17 -12.5 30t-30.5 13h-558q-18 0 -30.5 -13t-12.5 -30v-258q0 -18 12.5 -30.5t30.5 -12.5h558q18 0 30.5 12.5t12.5 30.5v258zM770 491
q-9 0 -15.5 6.5t-6.5 15.5q0 98 -69 167t-167 69t-167 -69t-69 -167v-129q0 -9 -6.5 -15t-15.5 -6t-15 6t-6 15v129q0 115 81.5 197t197.5 82t197.5 -82t81.5 -197q0 -9 -6 -15.5t-15 -6.5zM512 191q-18 0 -30.5 12.5t-12.5 30t12.5 30.5t30.5 13t30.5 -13t12.5 -30.5
t-12.5 -30t-30.5 -12.5zM512 105q-9 0 -15 6t-6 15v86q0 9 6 15.5t15 6.5t15 -6.5t6 -15.5v-86q0 -9 -6 -15t-15 -6z" />
    <glyph glyph-name="uniE60E" unicode="&#xe60e;" 
d="M918 239h-812q-17 6 -28.5 23.5t-11.5 37.5t11.5 37t28.5 24h812q17 -7 28.5 -24t11.5 -37t-11.5 -37.5t-28.5 -23.5zM918 564h-812q-17 6 -28.5 23.5t-11.5 37t11.5 37t28.5 23.5h812q17 -6 28.5 -23.5t11.5 -37t-11.5 -37t-28.5 -23.5zM106 36h812q17 -6 28.5 -23
t11.5 -37t-11.5 -37.5t-28.5 -23.5h-812q-17 6 -28.5 23.5t-11.5 37.5t11.5 37t28.5 23z" />
    <glyph glyph-name="uniE60F" unicode="&#xe60f;" 
d="M736 332h-193v193q0 14 -9.5 23.5t-23 9.5t-23 -9.5t-9.5 -23.5v-193h-193q-13 0 -22.5 -9.5t-9.5 -22.5t9.5 -22.5t22.5 -9.5h193v-193q0 -13 9.5 -22.5t23 -9.5t23 9.5t9.5 22.5v193h193q13 0 22.5 9.5t9.5 22.5t-9.5 22.5t-22.5 9.5zM510.5 -144q-90.5 0 -172.5 35
q-80 34 -141.5 95.5t-95.5 140.5q-35 83 -35 173t35 173q34 80 95.5 141.5t141.5 94.5q82 35 172.5 35t172.5 -35q80 -33 141.5 -94.5t95.5 -141.5q35 -83 35 -173t-35 -173q-34 -79 -95.5 -140.5t-141.5 -95.5q-82 -35 -172.5 -35zM510.5 693q-106.5 0 -197 -52.5
t-143.5 -143t-53 -197t53 -197.5t143.5 -143.5t197 -52.5t197 52.5t143 143.5t52.5 197.5t-52.5 197t-143 143t-197 52.5z" />
    <glyph glyph-name="uniE610" unicode="&#xe610;" 
d="M511.5 230q-61.5 0 -105.5 43.5t-44 105t44 105.5t105.5 44t105.5 -44t44 -105.5t-44 -105t-105.5 -43.5zM511 112q-134 0 -246.5 70t-171.5 191q-6 12 0 23q59 121 171.5 191.5t246.5 70.5t246.5 -70.5t172.5 -191.5q5 -11 0 -23q-60 -121 -172.5 -191t-246.5 -70z
M147 385q54 -102 151.5 -161t213 -59t213 59t151.5 161q-54 102 -151.5 160.5t-213 58.5t-213 -58.5t-151.5 -160.5z" />
    <glyph glyph-name="uniE611" unicode="&#xe611;" 
d="M523.5 809q-115.5 0 -214 -57t-155.5 -155.5t-57 -214t57 -214t155.5 -155.5t214 -57t214 57t155.5 155.5t57 214t-57 214t-155.5 155.5t-214 57zM523.5 -10q-106.5 0 -197 52.5t-143 143t-52.5 197t52.5 197t143 143t197 52.5t197 -52.5t143 -143t52.5 -197t-52.5 -197
t-143 -143t-197 -52.5zM715 416q7 0 12 5t5 12t-5 12t-12 5h-107l104 105q5 5 5 12t-5 12t-12 5t-12 -5l-121 -121q-3 -3 -4 -8h-69q-1 5 -4 8l-121 121q-5 5 -12 5t-12 -5t-5 -12t5 -12l104 -105h-110q-7 0 -12 -5t-5 -12t5 -12t12 -5h167v-102h-167q-7 0 -12 -5t-5 -12
t5 -12t12 -5h167v-135q0 -7 5 -12t12 -5t12 5t5 12v135h175q7 0 12 5t5 12t-5 12t-12 5h-175v102h175z" />
    <glyph glyph-name="uniE612" unicode="&#xe612;" 
d="M320 319l256 -386l256 386h-125v385h-258v-385h-129z" />
    <glyph glyph-name="uniE613" unicode="&#xe613;" 
d="M563 734q43 0 58 -20t15 -63v-63q1 -42 1 -91q1 -48 2 -93.5t1 -72.5q0 -38 7.5 -60t34.5 -21q19 0 46.5 -1t48.5 0q35 0 44 -19t-13 -49q-24 -29 -56 -70t-65.5 -83.5t-66 -84t-57.5 -73.5q-22 -29 -43.5 -30t-45.5 26q-24 29 -55 67.5t-65 79.5q-33 41 -66 81.5
t-59 71.5q-29 34 -22.5 56.5t42.5 22.5q11 0 24 0.5t28 1t29.5 1t26.5 0.5q25 1 31.5 16t5.5 41q0 28 -1 75q0 46 -1 97q0 51 -1 98.5t-1 77.5q0 13 2 27t9.5 25t20.5 19t35 8q27 0 51 1q25 0 55 1z" />
    <glyph glyph-name="uniE614" unicode="&#xe614;" 
d="M361 283h-249q-20 0 -35 -14.5t-15 -35.5v-249q0 -20 15 -35t35 -15h249q21 0 35.5 15t14.5 35v249q0 21 -14.5 35.5t-35.5 14.5zM361 9q0 -10 -7 -17.5t-18 -7.5h-199q-10 0 -17.5 7.5t-7.5 17.5v199q0 11 7.5 18t17.5 7h199q11 0 18 -7t7 -18v-199zM523 283h-25
q-5 0 -8.5 -3.5t-3.5 -8.5v-225q0 -5 3.5 -8.5t8.5 -3.5h25q5 0 8.5 3.5t3.5 8.5v225q0 5 -3.5 8.5t-8.5 3.5zM498 482h25q5 0 8.5 3.5t3.5 9.5v323q0 5 -3.5 9t-8.5 4h-25q-5 0 -8.5 -4t-3.5 -9v-323q0 -6 3.5 -9.5t8.5 -3.5zM112 482h249q21 0 35.5 14.5t14.5 35.5v249
q0 21 -14.5 35.5t-35.5 14.5h-249q-20 0 -35 -14.5t-15 -35.5v-249q0 -21 15 -35.5t35 -14.5zM112 756q0 10 7.5 17.5t17.5 7.5h199q11 0 18 -7.5t7 -17.5v-199q0 -10 -7 -17.5t-18 -7.5h-199q-10 0 -17.5 7.5t-7.5 17.5v199zM672 208h-24q-6 0 -9.5 -3.5t-3.5 -8.5v-249
q0 -5 3.5 -9t9.5 -4h24q6 0 9.5 4t3.5 9v249q0 5 -3.5 8.5t-9.5 3.5zM946 407h-871q-5 0 -9 -3.5t-4 -8.5v-25q0 -5 4 -8.5t9 -3.5h871q5 0 9 3.5t4 8.5v25q0 5 -4 8.5t-9 3.5zM909 831h-249q-21 0 -35.5 -14.5t-14.5 -35.5v-249q0 -21 14.5 -35.5t35.5 -14.5h249
q21 0 35.5 14.5t14.5 35.5v249q0 21 -14.5 35.5t-35.5 14.5zM909 557q0 -10 -7.5 -17.5t-17.5 -7.5h-199q-10 0 -17.5 7.5t-7.5 17.5v199q0 10 7.5 17.5t17.5 7.5h199q10 0 17.5 -7.5t7.5 -17.5v-199zM797 208h-25q-5 0 -8.5 -3.5t-3.5 -8.5v-249q0 -5 3.5 -9t8.5 -4h25
q5 0 8.5 4t3.5 9v249q0 5 -3.5 8.5t-8.5 3.5zM921 283h-25q-5 0 -8.5 -3.5t-3.5 -8.5v-324q0 -5 3.5 -9t8.5 -4h25q6 0 9.5 4t3.5 9v324q0 5 -3.5 8.5t-9.5 3.5zM921 283z" />
    <glyph glyph-name="uniE615" unicode="&#xe615;" 
d="M702 64q-80 -56 -178 -55q-12 0 -25 1q-2 0 -5.5 0.5t-4.5 1.5q-13 1 -19 2q-1 1 -11 3q-12 3 -19 5l-8 3q-13 4 -21 7q0 1 -4 3q-14 6 -24 11h-1q-38 22 -69 53v1h-1l-18 20q-1 1 -2 2.5t-2 2.5q-66 84 -66 192h70q3 0 4.5 2.5t0.5 4.5l-119 180q-1 3 -4 3t-4 -3
l-119 -180q-2 -2 -0.5 -4.5t4.5 -2.5h71q0 -126 71 -230l1 -1v-2q3 -3 15 -19q0 -1 2 -3.5t3 -3.5q10 -12 23 -26q2 -2 3 -2q40 -41 90 -68l2 -2q13 -7 29 -14q1 -1 3.5 -2t4.5 -1q10 -5 25 -10q10 -3 13 -4q8 -3 23 -6q13 -3 16 -4q1 0 3 -0.5t3 -0.5q5 -1 23 -3q1 -1 3 -1
h5q22 -3 40 -3q125 0 228 74q17 11 20.5 31t-8 36.5t-31 20t-36.5 -8.5zM928 317q0 125 -71 228q0 1 -0.5 2t-0.5 2q-6 7 -18 23l-1 1l-1 1q-61 75 -149 114q-1 0 -2.5 1t-2.5 1q-12 5 -28 11q-1 0 -3 0.5t-4 1.5t-3 1q-10 3 -26 7q-12 2 -14 3q-1 0 -3 0.5t-4 0.5
q-3 1 -10 2t-9 1q-1 0 -5.5 0.5t-7.5 0.5q-13 2 -31 2h-3h-3h-1q-126 0 -228 -73q-17 -11 -20.5 -31t8 -36.5t31 -20t36.5 8.5q79 56 176 55q14 0 27 -1q1 0 4 -0.5t4 -0.5q12 -2 21 -4q1 0 10 -2l20 -5q1 -1 3.5 -1.5t3.5 -0.5q12 -5 22 -9q1 0 1.5 -0.5t1.5 -0.5
q67 -29 114 -87q1 0 1 -1q69 -85 69 -194h-71q-3 0 -4.5 -3t0.5 -5l119 -180q1 -3 4 -3t4 3l119 180q1 2 -0.5 5t-4.5 3h-70z" />
    <glyph glyph-name="uniE616" unicode="&#xe616;" 
d="M512 145l-431 432l34 34l431 -431zM942 577l-431 -432l-34 35l431 431z" />
    <glyph glyph-name="uniE617" unicode="&#xe617;" 
d="M512 747q-91 0 -174 -35.5t-143 -95.5t-95.5 -143t-35.5 -174t35.5 -173.5t95.5 -142.5t143 -95.5t174 -35.5t173.5 35.5t142.5 95.5t95.5 142.5t35.5 173.5t-35.5 174t-95.5 143t-142.5 95.5t-173.5 35.5v0zM768 415l-289 -289q-10 -10 -24 -11.5t-25 5.5q-5 2 -8 6
l-167 167q-12 12 -12 28.5t12 28.5t28.5 12t28.5 -12l138 -138l261 261q12 12 29 12t28.5 -12t11.5 -29t-12 -29v0z" />
    <glyph glyph-name="uniE618" unicode="&#xe618;" 
d="M512 896q-139 0 -257 -68.5t-186.5 -186.5t-68.5 -257q0 -104 40.5 -199t109 -163.5t163.5 -109t199 -40.5t199 40.5t163.5 109t109 163.5t40.5 199q0 139 -68.5 257t-186.5 186.5t-257 68.5zM700 231q11 -11 10.5 -27t-12 -27t-27.5 -11.5t-27 10.5l-132 135l-132 -135
q-11 -11 -27 -10.5t-27.5 11.5t-12 27t10.5 27l133 136l-133 135q-11 11 -10.5 27t12 27.5t27.5 11.5t27 -11l132 -135l132 135q11 11 27 11t27.5 -11.5t12 -27.5t-10.5 -27l-133 -135z" />
    <glyph glyph-name="uniE619" unicode="&#xe619;" 
d="M573 384l436 438q13 13 13 31t-13 30.5t-31 12.5t-30 -13l-436 -437l-436 437q-12 13 -30 13t-31 -12.5t-13 -30.5t13 -31l436 -438l-436 -438q-13 -13 -13 -31t13 -30.5t31 -12.5t30 13l436 437l436 -437q12 -13 30 -13t31 12.5t13 30.5t-13 31z" />
    <glyph glyph-name="uniE61A" unicode="&#xe61a;" 
d="M512 688q-109 0 -201 -53.5t-145.5 -145.5t-53.5 -201t53.5 -201t145.5 -145.5t201 -53.5t201 53.5t145.5 145.5t53.5 201t-53.5 201t-145.5 145.5t-201 53.5zM512 -66q-96 0 -177.5 47.5t-129 129t-47.5 177.5t47.5 177.5t129 129t177.5 47.5t177.5 -47.5t129 -129
t47.5 -177.5t-47.5 -177.5t-129 -129t-177.5 -47.5zM762 428.5q0 9.5 -7 16t-16 6.5q-12 0 -19 -11l-267 -267l-141 141q-6 7 -15.5 7t-16 -7t-6.5 -16t6 -16l173 -173l303 303h-1q7 7 7 16.5z" />
    <glyph glyph-name="uniE61B" unicode="&#xe61b;" 
d="M718 404q-4 8 -6 9l-2 1v1.5t-1 1.5l-331 319q-13 13 -32 13t-32 -14t-13 -32.5t14 -31.5l299 -288l-300 -284q-14 -13 -14.5 -32t12.5 -32.5t32 -14t32 12.5l335 316q10 10 12.5 25t-3.5 27q0 1 -1 2zM718 404z" />
    <glyph glyph-name="uniE61C" unicode="&#xe61c;" 
d="M999 617q-2 -10 -2 -12q-15 -54 -69 -67q-26 -7 -75 -18q-6 -1 -6 -8v-122v-122q1 -57 -45 -93q-32 -26 -87 -42q-49 -15 -114 -21q-65 -5 -133 -2q-102 4 -169 26q-53 17 -83 44q-40 35 -39 86v246q0 7 -6 8q-38 8 -75 17q-29 7 -47.5 28t-23.5 50v1v1v19q0 2 1 3
q4 28 22.5 48.5t45.5 27.5q44 10 351 81q9 2 28.5 6.5t29.5 6.5h17q3 0 7 -1t7 -1q43 -11 180.5 -42.5t212.5 -48.5q55 -13 70 -68q0 -2 1 -6.5t1 -6.5v-18zM786 504h-2t-3 -1q-34 -8 -114.5 -26.5t-123.5 -28.5q-30 -7 -50 -2l-237 54q-4 1 -19 4v-7v-228q0 -21 16 -35
q7 -7 13 -10q26 -19 68 -31q57 -18 129 -22q102 -6 187 11q58 12 97 34q21 12 32 26q7 10 7 23v232v7zM511 504q1 0 3 0.5t3.5 0.5t2.5 1q50 11 151 34.5t152 34.5l90 21q20 5 25 23q3 14 -4.5 24.5t-22.5 13.5q-65 15 -194.5 45t-194.5 45q-10 3 -20 0q-54 -12 -161 -37
q-153 -35 -229 -53q-26 -6 -26 -31q0 -24 26 -30l367 -85q16 -3 32 -7zM931 -44q-6 2 -10 3q-21 6 -33 24.5t-10 41.5q5 45 25 82q7 13 18 24q17 18 34 0q11 -12 20 -27q18 -33 23 -75q1 -2 1 -4v-15q0 -2 -1 -3q-7 -37 -43 -48q-1 -1 -4.5 -1.5t-4.5 -0.5q-5 -1 -15 -1z
M908 338v135q0 13 7.5 21.5t19.5 9.5q13 2 23 -6.5t11 -21.5v-4v-271q0 -16 -12.5 -25.5t-28.5 -4.5q-20 8 -20 30v137z" />
    <glyph glyph-name="uniE61D" unicode="&#xe61d;" 
d="M823 621h-95v26q0 47 -34 81t-82 34h-200q-48 0 -82 -34t-34 -81v-26h-95q-47 0 -81 -34t-34 -81v-385q0 -47 34 -81t81 -34h622q47 0 81 34t34 81v385q0 47 -34 81t-81 34zM342 647q0 28 20.5 48.5t49.5 20.5h200q29 0 49.5 -20.5t20.5 -48.5v-26h-340v26zM201 575h622
q28 0 48.5 -20.5t20.5 -48.5v-148h-125v6q0 17 -12.5 30t-30.5 13t-30.5 -13t-12.5 -30v-6h-338v6q0 17 -12.5 30t-30.5 13t-30.5 -13t-12.5 -30v-6h-125v148q0 28 20.5 48.5t48.5 20.5zM823 52h-622q-28 0 -48.5 20.5t-20.5 48.5v191h125v-49q0 -17 12.5 -30t30.5 -13
t30.5 13t12.5 30v49h338v-49q0 -17 12.5 -30t30.5 -13t30.5 13t12.5 30v49h125v-191q0 -28 -20.5 -48.5t-48.5 -20.5z" />
    <glyph glyph-name="uniE61E" unicode="&#xe61e;" 
d="M854 103h-77v28h77q13 0 22 9t9 21.5t-9 21.5t-22 9h-37l51 49q9 8 9.5 21t-8.5 22t-22 9.5t-22 -8.5l-78 -76l-79 76q-9 9 -21.5 8.5t-21.5 -9.5t-8.5 -22t9.5 -21l50 -49h-36q-13 0 -22 -9t-9 -21.5t9 -21.5t22 -9h76v-28h-76q-13 0 -22 -9t-9 -22t9 -22t22 -9h76v-25
q0 -13 9 -22t21.5 -9t21.5 9t9 22v25h77q13 0 22 9t9 22t-9 22t-22 9zM512 600q-13 0 -22 -9t-9 -22v-208q0 -12 9 -21t22 -9h172q13 0 22 9t9 21.5t-9 21.5t-22 9h-141v177q0 13 -9 22t-22 9zM558 50q-4 0 -9 -2q-21 -3 -42 -3q-131 0 -223.5 93t-92.5 223.5t92.5 223
t223.5 92.5t223.5 -92.5t92.5 -223.5v-9v-3q0 -13 9 -22t22 -9t22 9t9 22q0 1 -1 3q1 5 1 9q0 77 -30 147q-29 68 -81 120.5t-120 80.5q-56 24 -116 29v19q0 12 -9 21t-22 9t-22 -9t-9 -21v-19q-60 -5 -116 -29q-67 -28 -119.5 -80.5t-81.5 -120.5q-29 -70 -29 -146.5
t29 -146.5q29 -68 81.5 -120.5t119.5 -80.5q70 -30 147 -30q32 0 56 4q11 2 18.5 10.5t7.5 20.5q0 13 -9 22t-22 9z" />
    <glyph glyph-name="uniE61F" unicode="&#xe61f;" 
d="M454 -81q-23 25 -38 41.5t-54.5 63.5t-68 84t-66 92.5t-61 101.5t-40.5 97t-17 92q0 110 54 202.5t146.5 146.5t202 54t202.5 -54t147 -146.5t54 -202.5q0 -193 -345 -572q-18 -19 -25 -26.5t-18.5 -14t-15.5 -6.5t-15 6.5t-18 14t-24 26.5v0zM512 841q-95 0 -175 -46.5
t-127 -127t-47 -174.5q0 -38 13.5 -81.5t32 -82t51 -87t57.5 -82t66.5 -81.5t63.5 -72t60 -65l5 -5l5 5q38 41 60 65t63 72t66.5 82t58 82t51 86.5t31.5 82.5t13 81q0 94 -46.5 174.5t-127 127t-174.5 46.5v0zM512 291q-82 0 -140 58t-58 140t58 139.5t139.5 57.5
t139.5 -57.5t58 -139.5t-57.5 -140t-139.5 -58v0zM512 630q-59 0 -101 -42t-42 -100.5t42 -100.5t101 -42t100.5 42t41.5 100.5t-41.5 100.5t-100.5 42v0zM512 630z" />
    <glyph glyph-name="uniE620" unicode="&#xe620;" 
d="M954 -114l-284 284q88 99 88 231q0 94 -46.5 173.5t-126 126t-174 46.5t-174 -46.5t-126 -126t-46.5 -174t46.5 -174t126 -126t174.5 -46.5q131 0 229 87l284 -284q6 -5 14.5 -5t14.5 6t6 14.5t-6 13.5zM106 400.5q0 126.5 89.5 216t216 89.5t216 -89.5t89.5 -216
t-89.5 -216t-216 -89.5t-216 89.5t-89.5 216z" />
    <glyph glyph-name="uniE621" unicode="&#xe621;" 
d="M273 300l432 431l34 -34l-431 -431zM705 -130l-432 431l35 34l431 -431z" />
    <glyph glyph-name="uniE622" unicode="&#xe622;" 
d="M620 -64h30v896h-30q-63 -38 -246 -155v-35q234 146 245 153h1v-859z" />
    <glyph glyph-name="uniE623" unicode="&#xe623;" 
d="M229 586h31q2 95 68.5 156.5t165.5 61.5t165.5 -61t66.5 -151q0 -63 -36.5 -124t-142.5 -172l-315 -335v-25h563v29h-518v3l292 309q109 114 148 180.5t39 135.5q0 101 -75 170t-186 69q-113 0 -188 -69t-78 -177z" />
    <glyph glyph-name="uniE624" unicode="&#xe624;" 
d="M399 388h96q129 0 202 -54t73 -149.5t-73.5 -158t-184.5 -62.5q-108 0 -182.5 58t-75.5 142h-31q2 -97 84.5 -162.5t203.5 -65.5q125 0 207.5 70.5t82.5 177.5q0 93 -61.5 152t-163.5 66v2q87 17 136.5 72.5t49.5 136.5q0 94 -73.5 156.5t-185.5 62.5q-107 0 -180.5 -62
t-78.5 -156h30q5 81 70.5 135.5t158.5 54.5q98 0 163.5 -55t65.5 -138q0 -86 -66 -140.5t-171 -54.5h-96v-28z" />
    <glyph glyph-name="uniE625" unicode="&#xe625;" 
d="M512 -121q-114 0 -211 56.5t-153.5 153.5t-56.5 211t56.5 211t153.5 153.5t211 56.5t211 -56.5t153.5 -153.5t56.5 -211t-56.5 -211t-153.5 -153.5t-211 -56.5zM512 675q-102 0 -188.5 -50t-136.5 -136.5t-50 -188.5t50 -188.5t136.5 -136.5t188.5 -50t188.5 50
t136.5 136.5t50 188.5t-50 188.5t-136.5 136.5t-188.5 50zM728 266h-227q-10 0 -16.5 6.5t-6.5 16.5v250q0 9 6.5 16t16 7t16 -7t6.5 -16v-228h205q10 0 16.5 -6.5t6.5 -16t-6.5 -16t-16.5 -6.5z" />
    <glyph glyph-name="uniE626" unicode="&#xe626;" 
d="M512 333l193 193l16 16l33 -33l-16 -16l-193 -193l216 -216l16 -16l-33 -33l-16 16l-216 216l-216 -216l-16 -16l-33 33l16 16l216 216l-193 193l-16 16l33 33l16 -16zM512 -212q139 0 257 68.5t186.5 186.5t68.5 257t-68.5 257t-186.5 186.5t-257 68.5t-257 -68.5
t-186.5 -186.5t-68.5 -257t68.5 -257t186.5 -186.5t257 -68.5z" />
    <glyph glyph-name="uniE627" unicode="&#xe627;" 
d="M655 -64h30v234h146v29h-146v633l-42 -1q-245 -323 -450 -632v-29h462v-234zM230 201q212 318 424 594h1v-596h-425v2z" />
    <glyph glyph-name="uniE628" unicode="&#xe628;" 
d="M504 -64q129 0 214.5 83.5t85.5 209.5q0 125 -83.5 208.5t-208.5 83.5q-74 0 -139 -32.5t-103 -88.5h-1l45 403h432v29h-458l-54 -478h33q38 65 103 102t142 37q111 0 186.5 -76t75.5 -189t-77 -188.5t-193 -75.5q-98 0 -170.5 55.5t-83.5 137.5h-30q11 -95 92 -158
t192 -63z" />
    <glyph glyph-name="uniE629" unicode="&#xe629;" 
d="M524 -64q124 0 207 84.5t83 211.5q0 121 -83 203.5t-207 82.5q-102 0 -181 -60t-101 -153h-2q-5 233 71.5 366t215.5 133q90 0 156 -52t79 -132h30q-14 94 -87.5 153t-177.5 59q-145 0 -231 -128t-86 -345q0 -212 90 -321q41 -49 98.5 -75.5t125.5 -26.5zM524 -36
q-113 0 -189.5 80.5t-76.5 197.5q0 100 79 174.5t186 74.5q110 0 185.5 -75t75.5 -184q0 -114 -75 -191t-185 -77z" />
    <glyph glyph-name="uniE62A" unicode="&#xe62a;" 
d="M326 -64h35l434 865v31h-566v-29h533v-2z" />
    <glyph glyph-name="uniE62B" unicode="&#xe62b;" 
d="M918 381q-4 12 -16 14l-257 37l-115 233q-6 11 -18 11t-18 -11l-115 -233l-257 -37q-12 -2 -16 -14t5 -21l186 -181l-44 -255q-2 -13 8 -20t21 -2l230 121l230 -121q4 -2 9 -2q7 0 12 4q10 7 8 20l-44 255l186 181q9 9 5 21zM691 201q-7 -8 -5 -18l38 -226l-203 107
q-4 2 -9 2t-9 -2l-203 -107l38 226q2 10 -5 18l-165 160l227 33q11 1 15 11l102 205l102 -205q4 -10 15 -11l227 -33z" />
    <glyph glyph-name="uniE62C" unicode="&#xe62c;" 
d="M940 505l-492 -493q-19 -19 -45.5 -19t-45.5 19l-278 279q-19 18 -19 45t19 45.5t45.5 18.5t45.5 -19l233 -232l447 447q19 18 45.5 18t45 -18.5t18.5 -45t-19 -45.5zM940 505z" />
    <glyph glyph-name="uniE62D" unicode="&#xe62d;" 
d="M190 317q11 0 18.5 7.5t7.5 18.5t-7.5 18.5t-18.5 7.5h-1h-62h-4q-15 0 -25.5 -10.5t-10.5 -25.5v-434q0 -14 10 -24.5t25 -10.5h6h61v0h1q10 0 17 7.5t7 17.5t-7 17.5t-17 7.5h-51l2 403h49zM927 354q-27 43 -82 46h-5l-206 1q23 66 23 129q0 41 -9 83v-1
q-8 36 -36.5 59t-64.5 23q-42 0 -69 -31t-27 -75v-3v-3v-4q-2 -80 -59 -139t-137 -68v-55l-1 -222v-230h520q22 0 47 16t38 42q3 5 5 11l77 345q2 5 1 12q3 35 -15 64zM894 301l-83 -368q-4 -9 -13 -15q-6 -4 -14 -5h-4l-477 1v407q77 35 121 72t67 102q6 17 9 33
q3 13 4 27.5t1 22.5v8q-3 25 12 39t33 14q18 -1 34 -19t16 -34q6 -27 6 -57q0 -16 -1.5 -30.5t-2.5 -20.5l-1 -6q-9 -46 -31 -87q-3 -7 -3 -16q0 -13 10 -17.5t28 -4.5h239h15q20 1 31 -17q8 -13 4 -29zM265 -136v0v0z" />
    <glyph glyph-name="uniE62E" unicode="&#xe62e;" 
d="M408 468l5 5q14 13 19 20.5t8.5 20.5t-4 29.5t-25.5 38.5q-9 12 -19 19.5t-17.5 10.5t-16.5 2t-14.5 -3t-14 -8.5t-11.5 -10.5l-13 -12q-9 -9 -11 -12q-28 -27 3.5 -110.5t118 -170t170 -118t110.5 -3.5q3 2 12 11l12 13q4 3 10.5 11.5t8.5 14t3 14.5t-2 16.5t-10.5 17.5
t-19.5 19q-22 18 -38.5 26t-29.5 4t-20.5 -9t-20.5 -19l-5 -5q-26 -25 -119.5 68.5t-68.5 119.5zM512 -102q99 0 189 38.5t155 103.5t103.5 155t38.5 189t-38.5 189t-103.5 155t-155 103.5t-189 38.5t-189 -38.5t-155 -103.5t-103.5 -155t-38.5 -189t38.5 -189t103.5 -155
t155 -103.5t189 -38.5zM512 -128q-139 0 -257 68.5t-186.5 186.5t-68.5 257t68.5 257t186.5 186.5t257 68.5t257 -68.5t186.5 -186.5t68.5 -257t-68.5 -257t-186.5 -186.5t-257 -68.5z" />
    <glyph glyph-name="uniE62F" unicode="&#xe62f;" horiz-adv-x="1025" 
d="M512 896q-104 0 -199 -40.5t-163.5 -109t-109 -163.5t-40.5 -199t40.5 -199t109 -163.5t163.5 -109t199 -40.5t199 40.5t163.5 109t109 163.5t40.5 199t-40.5 199t-109 163.5t-163.5 109t-199 40.5zM806 517l-331 -331q-12 -12 -28 -13.5t-29 6.5q-5 3 -9 7l-191 190
q-13 14 -13 33t13.5 32.5t32.5 13.5t33 -13l158 -158l298 298q14 14 33 14t32.5 -13.5t13.5 -33t-13 -32.5z" />
    <glyph glyph-name="uniE630" unicode="&#xe630;" 
d="M621 819v-54h-436q-28 0 -41 -17t-13 -39q0 -9 -0.5 -313.5t-0.5 -337.5q0 -25 20 -39.5t36 -14.5h654q20 0 36.5 18.5t16.5 57.5v411h55v-435q0 -108 -110 -108h-653q-46 0 -77.5 28t-31.5 81v654q0 49 29 78.5t80 29.5h436zM621 819zM919 681q-74 74 -94 95
q-19 20 -41 21t-41 -17q-12 -11 -121 -116.5t-212 -205.5l-104 -99l-123 -307l283 126q420 404 448 433q17 19 17 38.5t-12 31.5zM252 124l73 177l92 -99zM458 239l-99 106l307 297l103 -107zM804 572l-100 103l76 74l102 -100zM804 572z" />
    <glyph glyph-name="uniE631" unicode="&#xe631;" 
d="M189 407h441v-48h-441v48zM189 292v-45h441v48zM189 176v-45h441v48zM695 295v242h-164v164h-409v-803h573h50v-47h-671v896h507l2 -176h96h66v-276h-50zM581 684l98 -89v-24h66v29l-164 147v-63zM598 78v-91h97zM630 110l229 229l93 -92l-227 -230zM695 -50h50v-52h-50
v52z" />
    <glyph glyph-name="uniE632" unicode="&#xe632;" 
d="M931 -81l-33 -33l-164 164q-108 -97 -253 -97q-103 0 -191 51.5t-139.5 139.5t-51.5 191.5t51.5 191.5t139.5 139t191.5 51t191.5 -51t139 -139t51 -192q0 -144 -96 -253zM817 335q0 91 -45 168.5t-122.5 122.5t-168.5 45t-168 -45t-122 -122.5t-45 -168.5t45 -168.5
t122 -122.5t168 -45t168.5 45t122.5 122.5t45 168.5zM483 367q-45 0 -77.5 31.5t-32.5 76t32.5 76.5t78 32t77.5 -32t32 -76.5t-32 -76t-78 -31.5zM483 533q-25 0 -43 -17t-18 -41.5t18 -41.5t43 -17t43 17t18 41.5t-18 41.5t-43 17zM561 85h-154q-27 0 -50.5 17.5
t-23.5 42.5l13 158q0 25 18.5 42.5t44.5 17.5h147q26 0 44.5 -18t18.5 -43l14 -161q0 -25 -21.5 -40.5t-50.5 -15.5zM569 302q0 5 -3.5 8.5t-9.5 3.5h-147q-6 0 -9.5 -3.5t-3.5 -8.5v-3l-13 -154q2 -3 9.5 -7t14.5 -4h154q15 0 22 7z" />
    <glyph glyph-name="uniE633" unicode="&#xe633;" 
d="M813 532h-116q3 9 3 19v45q0 29 -21 49.5t-50 20.5h-234q-29 0 -50 -20.5t-21 -49.5v-45q0 -10 3 -19h-116q-48 0 -82.5 -33.5t-34.5 -81.5v-368q0 -48 34.5 -81.5t82.5 -33.5h602q48 0 82.5 33.5t34.5 81.5v368q0 48 -34.5 81.5t-82.5 33.5zM375 551v45q0 8 6 13.5
t14 5.5h234q8 0 14 -5.5t6 -13.5v-45q0 -8 -6 -13.5t-14 -5.5h-234q-8 0 -14 5.5t-6 13.5zM211 481h184h234h184q27 0 46.5 -19t19.5 -45v-48h-734v48q0 26 19.5 45t46.5 19zM596 318q-8 -29 -32.5 -47t-56 -18t-56 18t-33.5 47h178zM813 -15h-602q-27 0 -46.5 18.5
t-19.5 45.5v269h221q9 -50 49 -83t92.5 -33t92.5 33t49 83h230v-269q0 -27 -19.5 -45.5t-46.5 -18.5z" />
    <glyph glyph-name="uniE634" unicode="&#xe634;" 
d="M512 792q-110 0 -203.5 -54.5t-148 -148t-54.5 -203.5q0 -85 34.5 -163.5t97.5 -135.5l251 -269q9 -10 23 -10t23 10l250 267q63 58 98 136.5t35 164.5q0 110 -54.5 203.5t-148 148t-203.5 54.5zM512 -113l-196 210q20 51 73.5 84t122.5 33t122.5 -33t73.5 -84z
M418 415.5q0 38.5 27.5 66t66.5 27.5t66.5 -27.5t27.5 -66t-27.5 -66t-66.5 -27.5t-66.5 27.5t-27.5 66zM755 146q-26 47 -73.5 80t-107.5 45q43 18 69.5 57.5t26.5 87.5q0 65 -46.5 111t-111.5 46t-111.5 -46t-46.5 -111q0 -48 26.5 -87.5t69.5 -57.5q-60 -12 -107.5 -45
t-73.5 -80q-47 49 -73 111t-26 129q0 93 46 171.5t124.5 124.5t171.5 46t171.5 -46t124.5 -124.5t46 -171.5q0 -67 -25.5 -129t-73.5 -111z" />
    <glyph glyph-name="uniE635" unicode="&#xe635;" 
d="M789 302q30 -10 52 -23q94 -52 137 -151q29 -66 25 -143q-1 -25 -22 -30q-14 -3 -24.5 6.5t-9.5 24.5q5 85 -38 154q-60 94 -168 116q-7 2 -19 3.5t-15 1.5q-10 2 -16.5 9t-7.5 16q-2 23 19 30q49 15 83 58q35 44 39 98q6 79 -45 138q-39 44 -98 57q-19 5 -50 5
q-10 0 -17.5 6t-9.5 15q-2 13 6 22.5t21 10.5q55 2 102 -19q113 -49 139 -165q29 -122 -58 -217l-12 -12q-1 0 -13 -11zM402 209q5 -9 18.5 -32t20.5 -35q42 -72 54 -91q2 -4 -1 -7q-41 -40 -89 -87q-3 -4 -7 0q-34 34 -88 87q-3 3 -1 7q20 34 91 155zM776 -17q-6 38 -17 68
q-57 153 -206 222q-12 5 -31 12q99 64 115 174q16 114 -62 199q-72 79 -178.5 78.5t-178.5 -79.5q-75 -82 -61 -192q13 -114 116 -180q-1 0 -5 -2q-14 -5 -29 -12q-111 -51 -173 -156q-36 -60 -47 -131q-4 -23 15 -32q23 -10 38 9q5 5 7 20q21 106 96 175q129 119 299 79
q134 -31 206 -157q26 -44 37 -106q2 -12 12.5 -18.5t22.5 -4.5q12 3 19 13t5 21zM397 307q-78 0 -132.5 55t-54.5 132q0 78 55 132.5t132.5 54.5t132 -55t54.5 -132.5t-54.5 -132.5t-132.5 -54z" />
    <glyph glyph-name="uniE636" unicode="&#xe636;" 
d="M513 830q-91 0 -174 -35t-143 -95t-95 -143t-35 -174t35 -173.5t95 -142.5t143 -95.5t174 -35.5t173.5 35.5t142.5 95.5t95.5 142.5t35.5 173.5t-35.5 174t-95.5 143t-142.5 95t-173.5 35zM512.5 -25q-110.5 0 -204.5 54.5t-149 149t-55 205t55 204.5t149 149t204.5 55
t205 -55t149 -149t54.5 -204.5t-54.5 -205t-149 -149t-205 -54.5zM576 552q-29 24 -59 24q-16 0 -35 -7q-12 -4 -25.5 -17.5t-20.5 -32.5q-1 -3 -2 -7t-1 -17t2 -25.5t10.5 -29t22.5 -29.5l4 -4q6 -7 27 -23t30 -30t9 -33q2 -26 -18 -47t-47 -23h-3q-25 0 -41 12
q-7 5 -15 12q-29 42 -5 82q16 24 49 47q-47 44 -35 105q-40 -33 -60 -71t-20.5 -71.5t10.5 -65t28.5 -53t37.5 -32.5q35 -23 84 -23q39 0 75 15.5t61 44.5q20 24 31 56.5t10.5 72.5t-26.5 85.5t-78 84.5zM576 552z" />
    <glyph glyph-name="uniE637" unicode="&#xe637;" 
d="M958 -52l-9 -16h-24h-837h-27l1 24q2 91 24 164q32 107 104 162l7 6h10l118 1v-49l-108 1q-54 -45 -80 -133q-17 -58 -21 -130l789 1q2 55 -31 144q-28 75 -74 119h-123v47h140l11 -4q60 -49 97 -148q42 -116 33 -189zM518 10l-70 46l46 161l-18 25l2 25q37 2 75 0l2 -25
l-18 -25l52 -161zM722 477q-27 -82 -76 -127q-51 -47 -136 -62l-4 -1h-5q-78 12 -132 60q-52 47 -80 129q-23 11 -35 37q-14 28 -13 71v11l11 7q5 3 11 5q-8 45 -8.5 82t13.5 70.5t42 56.5q21 13 58 16t72 0.5t77 3.5q33 4 60.5 4t48.5 -2t37.5 -11t28 -16.5t21 -25
t14.5 -29t10 -37t7 -40.5t6 -47q2 -19 4 -28q2 -2 4 -2l10 -7v-11q1 -43 -12 -70q-11 -26 -34 -37zM696 563l-3 10l-7 -1l-4 19q-1 3 -6 49t-9 54q-4 -2 -8 -2.5t-8.5 0.5t-8 1.5t-9 3t-8 3.5t-9 4.5t-8.5 4.5l-9 -27l-16 2l2 16l-16 -23l-15 3l15 34q-36 -22 -88 -31.5
t-91 -6t-48 14.5q-1 -1 -4 -11q-2 -7 -6 -52.5t-6 -51.5l-1 -4q-1 -5 -2 -7q-5 3 -32 -1q2 -21 8 -35q7 -14 18 -17l13 -4l4 -11q24 -78 71 -120q40 -37 100 -47q66 14 106 50q43 39 66 117l4 11l12 4q11 4 18 18q6 14 8 34q-14 0 -23 -1z" />
    <glyph glyph-name="uniE638" unicode="&#xe638;" 
d="M711 306l-305 -136l69 -28v-64q-11 -5 -11 -17.5t12 -17.5l-15 -62h42l-15 62q14 4 14 17.5t-13 18.5v58l48 -20q9 7 25.5 18t61.5 29t84 18t77 -16.5t56.5 -31.5t18.5 -17l132 52zM569 102v-112q4 -4 12.5 -10t41.5 -16t74.5 -10t77.5 9t51.5 17.5t15.5 9.5v112
q-5 5 -15.5 13t-46.5 20.5t-75 12.5q-40 0 -73.5 -11.5t-48.5 -23.5zM814 1.5q0 -11.5 -32.5 -19.5t-79 -8t-79 8t-32.5 19.5t32.5 19.5t79 8t79 -8t32.5 -19.5zM229 118q-59 1 -100 42q-41 43 -41 101q0 51 33 91t84 49l18 3l2 19q15 97 89 162q75 66 175 66q76 0 140 -40
q48 -30 79 -75q-34 -6 -66 -22q-49 -25 -82 -70q-7 -9 -5.5 -19t10.5 -17q8 -6 18.5 -4.5t17.5 9.5q24 34 64 55q40 20 85 20q72 0 125 -48.5t60 -118.5h51q-6 87 -68 149q-64 63 -152 69q-39 70 -110 115q-76 47 -167 47q-120 0 -209 -78q-82 -72 -102 -176
q-62 -17 -101.5 -69t-39.5 -117q0 -80 56 -137q45 -46 110 -56v-2h186v51h-158z" />
    <glyph glyph-name="uniE639" unicode="&#xe639;" 
d="M1015.5 -199.5q-7.5 -8.5 -18 -8.5t-18.5 9l-165 178q21 18 39 38l163 -177q8 -8 7.5 -19.5t-8 -20zM662.5 -50q-99.5 0 -170 70.5t-70.5 170t70.5 170t170 70.5t170 -70.5t70.5 -170t-70.5 -170t-170 -70.5zM662.5 364q-71.5 0 -122.5 -51t-51 -123q0 -71 51 -122
t122.5 -51t122.5 51t51 122q0 72 -51 123t-122.5 51zM181 26v30h219q9 -15 23 -30h-242zM181 156v34h198q-1 -12 -1 -17t1 -17h-198zM181 452h219v-30h-219v30zM400 288h-219v30h219v-30zM774 476h-110v0h-66q-37 0 -62.5 26t-25.5 63v178h-377q-44 -6 -44 -64v-776
q0 -18 12.5 -31t31.5 -13h597q32 0 32 44v22q0 1 6 7t17 10.5t21 1.5l20 -18v-44q-5 -38 -32 -63.5t-64 -25.5l-617 -1q-37 0 -63 26t-26 63v838q0 37 26 62.5t63 25.5h331h11h23h62l272 -293l9 -8l8 -8v-9l-10 -57v-1q-22 14 -44 23zM569 682v-112q0 -12 10 -21t24 -9h115z
" />
    <glyph glyph-name="uniE63A" unicode="&#xe63a;" 
d="M512 417l209 209l33 -33l-209 -209l232 -232l-33 -33l-232 232l-232 -232l-33 33l232 232l-209 209l33 33zM512 -128q139 0 257 68.5t186.5 186.5t68.5 257t-68.5 257t-186.5 186.5t-257 68.5t-257 -68.5t-186.5 -186.5t-68.5 -257t68.5 -257t186.5 -186.5t257 -68.5z
" />
  </font>
</defs>
</svg>
