<?xml version="1.0" standalone="no"?>
<!DOCTYPE svg PUBLIC "-//W3C//DTD SVG 1.1//EN" "http://www.w3.org/Graphics/SVG/1.1/DTD/svg11.dtd" >
<svg xmlns="http://www.w3.org/2000/svg">
<metadata>
Created by FontForge 20120731 at Thu Aug 13 18:28:04 2015
 By Ads
</metadata>
<defs>
<font id="iconfont" horiz-adv-x="1024" >
  <font-face 
    font-family="iconfont"
    font-weight="500"
    font-stretch="normal"
    units-per-em="1024"
    panose-1="2 0 6 3 0 0 0 0 0 0"
    ascent="812"
    descent="-212"
    x-height="792"
    bbox="-0.785124 -227 1099.75 812.5"
    underline-thickness="50"
    underline-position="-100"
    unicode-range="U+0078-E65E"
  />
<missing-glyph horiz-adv-x="374" 
d="M34 0v682h272v-682h-272zM68 34h204v614h-204v-614z" />
    <glyph glyph-name=".notdef" horiz-adv-x="374" 
d="M34 0v682h272v-682h-272zM68 34h204v614h-204v-614z" />
    <glyph glyph-name=".null" horiz-adv-x="0" 
 />
    <glyph glyph-name="nonmarkingreturn" horiz-adv-x="341" 
 />
    <glyph glyph-name="x" unicode="x" horiz-adv-x="1001" 
d="M281 543q-27 -1 -53 -1h-83q-18 0 -36.5 -6t-32.5 -18.5t-23 -32t-9 -45.5v-76h912v41q0 16 -0.5 30t-0.5 18q0 13 -5 29t-17 29.5t-31.5 22.5t-49.5 9h-133v-97h-438v97zM955 310v-52q0 -23 0.5 -52t0.5 -58t-10.5 -47.5t-26 -30t-33 -16t-31.5 -4.5q-14 -1 -29.5 -0.5
t-29.5 0.5h-32l-45 128h-439l-44 -128h-29h-34q-20 0 -45 1q-25 0 -41 9.5t-25.5 23t-13.5 29.5t-4 30v167h911zM163 247q-12 0 -21 -8.5t-9 -21.5t9 -21.5t21 -8.5q13 0 22 8.5t9 21.5t-9 21.5t-22 8.5zM316 123q-8 -26 -14 -48q-5 -19 -10.5 -37t-7.5 -25t-3 -15t1 -14.5
t9.5 -10.5t21.5 -4h37h67h81h80h64h36q23 0 34 12t2 38q-5 13 -9.5 30.5t-9.5 34.5q-5 19 -11 39h-368zM336 498v228q0 11 2.5 23t10 21.5t20.5 15.5t34 6h188q31 0 51.5 -14.5t20.5 -52.5v-227h-327z" />
    <glyph glyph-name="uniE600" unicode="&#xe600;" 
d="M743 310q-17 4 -21.5 10.5t-1.5 11.5l4 6q0 1 1.5 3.5t4.5 9.5t5 14t2.5 17.5t-0.5 20t-6.5 20t-14.5 19.5q-15 15 -39.5 20t-49 1t-47 -10t-36.5 -12l-14 -6q-10 -3 -17.5 -4.5t-11.5 0t-6 3.5t-1.5 8t1 10t3 13.5t3.5 15.5q0 13 -2 24.5t-7 25.5t-16 23t-26.5 14.5
t-41 3t-57.5 -13.5q-37 -13 -77 -39.5t-68 -52t-55 -56t-35.5 -41.5t-13.5 -18q-72 -96 -70 -182l1 -7q6 -53 31.5 -94.5t61 -67.5t84 -44t93 -26.5t94.5 -12.5q81 -6 168 13.5t162 66.5t106 113q16 33 19 62t-5 49.5t-20.5 37t-29.5 27t-30 16.5t-24 8zM408 -31
q-118 -6 -201 46t-83 131q0 78 82.5 134.5t201.5 61.5q120 6 202.5 -39.5t82.5 -122.5q0 -81 -85 -143q-84 -63 -200 -68zM377 273q-114 -13 -136 -114q-7 -29 -4 -53q-1 -47 43 -71q71 -35 134 -21t101 64q15 18 20 45.5t-2.5 55.5t-24.5 51.5t-51.5 35.5t-79.5 7z
M337 64.5q-22 -2.5 -37.5 9t-15.5 29.5q0 19 14.5 35t35.5 19q25 2 40.5 -10t15.5 -31t-15.5 -34t-37.5 -17.5zM430 144q-7 -5 -15 -4.5t-12 7.5q-5 6 -3 15.5t9 14.5q6 4 12 5t10.5 -1t6.5 -6q3 -5 3 -10.5t-3 -11t-8 -9.5zM820 375h4q3 0 5 1l4 2q2 1 3.5 2.5t3 3.5t2.5 4
l2 4q1 2 1 4v2v1q14 124 -84 143q-30 6 -58 1q-10 0 -18 -7.5t-8 -18.5t8 -18.5t18 -7.5q34 7 54 0.5t28 -21.5t10 -30.5t0 -27.5l-1 -12q0 -4 1 -8t3.5 -7t6 -5.5t7.5 -3.5t8 -1zM801 678q-55 13 -129 -1q-1 0 -2 -1t-2 -1h-1q-12 -4 -19.5 -14t-7.5 -23q0 -8 3 -15t8 -12
t12 -8t14 -3q21 3 34 8q6 1 19.5 2.5t36 -4.5t45 -14.5t46.5 -28.5t40 -47q29 -65 12 -126q-8 -18 -8 -36q0 -15 11 -24.5t27 -9.5q10 0 16 1.5t12 9t8 21.5q13 43 15 81.5t-5 69t-21.5 57t-33 45.5t-41.5 34t-45 24.5t-44 14.5z" />
    <glyph glyph-name="uniE601" unicode="&#xe601;" horiz-adv-x="1060" 
d="M963 392q-10 0 -17 -7t-7 -17v-433q0 -13 -6.5 -24t-18 -17.5t-24.5 -6.5h-731q-20 0 -34 14t-14 34v706q0 13 6.5 24t17.5 17.5t24 6.5h471q10 0 17 7.5t7 17.5t-7 17t-17 7h-475q-39 0 -66 -27t-27 -66v-714q0 -39 27 -66t66 -27h740q38 0 65.5 27t27.5 66v437
q0 6 -3.5 11.5t-9 9t-12.5 3.5v0zM511 80l463 463q21 21 19 52t-25 54l-44 44q-15 15 -34.5 21t-38.5 2t-32 -18l-464 -463zM853 664q4 4 9.5 5.5t10.5 1.5t10.5 -2.5t9.5 -6.5l44 -44q6 -6 8.5 -13.5t1 -14.5t-7.5 -12l-51 -52l-85 87zM852 490l-345 -345l-86 86l345 346z
M355 234l-47 -175q-2 -5 -0.5 -11t5.5 -10q3 -3 6.5 -4.5t7.5 -2t7 0.5l175 48l-36 36l-113 -31l31 113zM355 234z" />
    <glyph glyph-name="uniE602" unicode="&#xe602;" 
d="M693 465q15 0 35 -2q-23 109 -127.5 181.5t-238.5 72.5q-58 0 -113.5 -15.5t-100 -43.5t-78 -66t-52 -85t-18.5 -98q0 -143 145 -245l-36 -109l127 64q6 -2 25 -5.5t27 -5t22.5 -4t26.5 -3t25 -0.5q16 0 34 1q-5 19 -8 38t-3 38q0 119 89.5 203t218.5 84zM498 563
q21 0 33.5 -12.5t12.5 -32.5q0 -14 -6 -24t-16 -16t-24 -6q-21 0 -37.5 13t-16.5 32.5t16.5 32.5t37.5 13zM245 472q-14 0 -26.5 6t-20.5 16.5t-8 23.5t8 23.5t20.5 16t26.5 5.5q20 0 32.5 -12.5t12.5 -33t-12.5 -33t-32.5 -12.5zM1024 182q0 71 -43 132t-113.5 96
t-151.5 35q-129 0 -218.5 -77t-89.5 -186t89.5 -186t218.5 -77q37 0 109 18l99 -54l-27 90q127 96 127 209zM616 228q-13 0 -24.5 11t-11.5 25q0 9 5 17.5t13.5 13.5t17.5 5q20 0 33 -11t13 -25q0 -7 -3.5 -13.5t-9.5 -11.5t-14.5 -8t-18.5 -3zM815 228q-8 0 -16.5 5
t-14 13.5t-5.5 17.5q0 13 11.5 24.5t24.5 11.5q20 0 33 -11t13 -25q0 -7 -3.5 -13.5t-9 -11.5t-14.5 -8t-19 -3z" />
    <glyph glyph-name="uniE603" unicode="&#xe603;" 
d="M599 441q25 31 38 73q7 21 10.5 43.5t3.5 46.5q19 -7 31 -13.5t18 -12.5q4 -5 6.5 -10t4 -11.5t1.5 -14.5q0 -39 -19 -77t-39 -38q-8 0 -21 3q-12 3 -34 11zM215 14q-59 75 -84 139q-26 65 -26 139q0 80 31 155q31 74 88 132q58 57 132 88q75 31 155 31q41 0 79.5 -7.5
t75.5 -23.5q19 -7 36.5 -16.5t33.5 -20.5t31.5 -24t30.5 -27q28 -29 50.5 -62t37.5 -70q31 -74 31 -155q0 -40 -7.5 -78.5t-23.5 -76.5q-31 -75 -88 -132q-58 -57 -132.5 -88t-154.5 -31q-98 0 -156 31q-59 31 -59 82q0 6 1 11.5t3 10.5q1 3 3 7t4.5 7.5t5.5 7.5
q9 -8 16 -12t13 -4q9 0 27 15q10 8 19 18t18 22q5 6 9.5 13.5t8.5 15.5t8 17q5 12 7.5 20.5t2.5 11.5q0 5 -12 20q-7 7 -10 14.5t-3 15.5q0 21 12 54q12 35 34 80q26 53 42 74t33 27q4 1 13 2q29 3 44 26q13 22 23 57q5 18 7.5 33t2.5 27q0 7 -0.5 12t-2 8.5t-3.5 6t-5.5 4
t-8.5 2.5t-12 1q-31 0 -53 -5q-23 -4 -34 -13q-7 -5 -18 -17t-26.5 -31.5t-31 -41.5t-31.5 -47q-58 -92 -96 -195q-37 -103 -37 -154q0 -4 0.5 -7.5t1.5 -7t2 -7.5q5 -12 16 -29q-15 -20 -22.5 -39t-7.5 -38q0 -64 69 -105q70 -41 183 -41h17l18 2q8 0 17 1t17 3l18 2
q8 2 16.5 4t16.5 4.5t17 5.5l16 6q9 3 17 6q83 34 145 97q63 62 97 145q34 82 34 170t-34 169q-34 82 -97 145q-63 64 -144 97q-82 34 -171 34t-170 -34t-144 -97q-63 -62 -97 -144t-34 -170q0 -77 24 -143q23 -66 69 -117q9 -11 18.5 -17t17.5 -6l7 1q3 1 13 4zM364 12
q38 27 63 63q24 35 35 77l6 -4l6 -4q3 -2 5.5 -4t4.5 -3.5t4 -3.5t4 -3.5t3 -3t3 -2.5q4 -5 6.5 -10.5t2.5 -11.5q0 -15 -8 -33t-23 -39q-31 -41 -59 -41q-8 0 -22 6q-13 6 -31 17z" />
    <glyph glyph-name="uniE604" unicode="&#xe604;" 
d="M898 681l-4 4q-61 62 -149 62t-150 -62l-191 -191q-62 -62 -62 -150t62 -150l3 -3q5 -5 10.5 -9.5t11.5 -9.5l70 70l-6 4l-6 4q-3 2 -5 4l-6 6l-3 3q-34 34 -34 81.5t34 80.5l191 191q33 34 80.5 34t81.5 -34l3 -3q34 -34 34 -81.5t-34 -81.5l-86 -86l6 -16q3 -8 5 -16
t4 -16.5t3 -17t2 -16.5t1 -16v-18l134 134q62 62 62 150t-62 149v0zM616 406q-10 10 -22 19l-70 -70q13 -7 23 -17l4 -4q33 -33 33 -81t-33 -81l-191 -191q-34 -34 -81.5 -34t-80.5 34l-4 3q-17 17 -25.5 38.5t-8.5 43t8.5 43t25.5 38.5l86 86q-22 56 -21 116l-134 -134
q-62 -61 -62 -149t62 -150l4 -4q62 -62 150 -62t149 62l191 191q31 31 46.5 70.5t15.5 79.5t-15.5 79.5t-46.5 70.5l-3 3v0zM616 406z" />
    <glyph glyph-name="uniE605" unicode="&#xe605;" 
d="M846 342q-6 25 -14 50q3 92 -23 156.5t-65 106.5q-91 97 -233 97q-41 0 -80.5 -10.5t-74.5 -31t-63 -49.5q-26 -26 -45.5 -57.5t-35.5 -85.5t-17 -117q-5 -14 -9.5 -28t-7.5 -28q-20 -28 -34 -61.5t-23 -74.5t-2.5 -85t29.5 -83l10 -12q13 -15 32 -24q-1 -4 -1 -7v-6
q0 -64 58.5 -104t152.5 -40q62 0 113 24q50 -24 113 -24q93 0 151.5 40t58.5 104v13q18 9 31 23q5 6 9 13q23 38 29.5 82t-2.5 84t-23 73.5t-34 61.5zM799 88q-1 -1 -5 -1q-2 0 -6 2t-9 7t-12 16.5t-15 27.5q-22 -60 -69 -102q28 -6 45.5 -18.5t17.5 -27.5q0 -7 -3 -13
t-9 -11t-14.5 -9.5t-19 -8.5t-22 -6.5t-25 -4t-27.5 -1.5q-15 0 -29 2t-25.5 5.5t-21 8t-17 10t-11.5 11.5h-1h-8q-3 0 -9 1q-5 -7 -12.5 -12.5t-17 -10t-21 -8t-25.5 -5.5t-28 -2q-33 0 -61 7.5t-44 19.5t-16 27t17.5 27.5t47.5 19.5q-49 41 -72 102q-25 -54 -42 -54l-5 2
q-16 26 -18.5 58.5t5.5 58.5t19 49.5t19.5 36t9.5 13.5l1 -3q4 21 10 41.5t14 40.5v2q-1 70 19 125t53.5 87t72.5 48t81 16q47 0 89 -17t76 -49.5t51.5 -88t13.5 -125.5q0 -1 -1 -3q8 -18 13 -37t9 -37q3 0 22.5 -35t31 -83t-16.5 -99z" />
    <glyph glyph-name="uniE606" unicode="&#xe606;" 
d="M925 299q0 83 -32.5 159t-87.5 131t-131 88t-160 33q-111 0 -206 -55t-150 -150t-55 -206.5t55 -206t150 -149.5t206 -55q137 0 248 84q4 5 4 12q0 5 -2.5 9t-6.5 6.5t-9 2.5q-8 0 -13 -6q-99 -72 -220 -72q-101 0 -187 49.5t-135.5 135.5t-49.5 187q0 76 29.5 144.5
t79 118.5t118.5 79.5t145 29.5q101 0 186.5 -50t135.5 -135.5t50 -186.5q0 -94 -42 -174q-2 -4 -2 -5q0 -5 2.5 -9.5t7 -7t9.5 -2.5q12 0 17 12q46 90 46 189zM629 320l-169 167q-5 5 -11 7t-12 1t-10 -6q-7 -6 -6.5 -15.5t8.5 -16.5l158 -156l-162 -160q-7 -7 -8 -17t6 -16
q2 -3 5.5 -4.5t7 -1.5t7 0.5t7 2.5t6.5 5l173 171q8 8 8 19q0 12 -8 20z" />
    <glyph glyph-name="uniE607" unicode="&#xe607;" 
d="M858 317l-460 467q-5 6 -13 6t-13.5 -5.5t-5.5 -13t6 -12.5l447 -455l-453 -453q-6 -5 -6 -12.5t6 -13.5q1 -1 2.5 -2t3.5 -1.5t3.5 -1t3.5 -0.5q8 0 13 5l466 466q3 4 4.5 8.5t0 9t-4.5 8.5z" />
    <glyph glyph-name="uniE608" unicode="&#xe608;" 
d="M499 467q20 0 32 12t12 32q0 10 -3.5 18t-9 13.5t-13.5 9t-18 3.5q-21 0 -37 -12.5t-16 -31.5q0 -4 1 -7l2 -8q1 -3 3 -6t5 -6t6 -5l6 -4q3 -2 6.5 -3.5t7.5 -2.5t8 -1.5t8 -0.5zM253 555q-21 0 -37 -12.5t-16 -31.5t16 -31.5t37 -12.5q20 0 32 12t12 32q0 13 -5.5 23
t-15.5 15.5t-23 5.5zM1024 186q0 104 -84 182t-203 87v3v3q-24 111 -130 185t-240 74q-151 0 -259 -92q-103 -88 -108 -212v-11q0 -142 138 -243l-32 -94q-1 -3 -0.5 -6t1.5 -6t4 -5q2 -2 5 -3t5 -1q4 0 8 2l117 59l15 -3q18 -4 27.5 -6t24 -4t27.5 -3t27 -1h11q6 0 12 0.5
t11 0.5q3 0 5 1t3.5 2t2.5 3q33 -81 114.5 -132t183.5 -51q37 0 103 17l91 -50q2 -1 3.5 -1.5t3.5 -0.5l11 3q8 7 5 18l-23 77q120 95 120 208zM399 124q-16 -1 -32 -1q-13 0 -25 1t-25.5 3t-23 3.5t-26.5 5.5l-20 4q-5 1 -10 -1l-88 -45l23 69q0 2 0.5 4.5t0 4t-1.5 3.5
t-2.5 3.5t-2.5 3.5q-134 93 -134 223q0 77 45 142t122 103t168 38q60 0 117.5 -17.5t102 -48.5t76 -74t42.5 -92q-63 0 -120.5 -22t-99 -58t-66 -86t-24.5 -104q0 -11 1 -21.5t3 -20.5t5 -21q-4 1 -5 1zM875 -4q-8 -6 -5 -17l15 -50l-62 34q-2 1 -4 1.5t-4 0.5t-4 -1
q-67 -17 -101 -17q-117 0 -200 70t-83 169q0 39 14.5 75.5t40.5 65.5t61 51.5t78 34.5t89 12q56 0 108 -19.5t90 -51.5t61 -76t23 -92q0 -49 -30 -98t-87 -92zM613 300q-13 0 -24 -11t-11 -24t11 -24t24 -11q19 0 31.5 10.5t12.5 24.5t-12.5 24.5t-31.5 10.5zM806 300
q-13 0 -24 -11t-11 -24t11 -24t24 -11q19 0 31.5 10.5t12.5 24.5q0 23 -26 32q-9 3 -18 3z" />
    <glyph glyph-name="uniE609" unicode="&#xe609;" 
d="M740 664q-24 0 -47.5 -5t-45.5 -14q-8 -3 -11 -10.5t0 -14.5t10.5 -10t14.5 0q19 8 39 11.5t40 3.5q82 0 140 -56t58 -135q0 -25 -6.5 -49t-19.5 -46q-4 -7 -2 -14.5t8 -11.5q3 -2 5.5 -2.5t4.5 -0.5q11 0 17 9q32 54 32 115q0 47 -19 89.5t-50.5 73t-75.5 49t-92 18.5z
M807 363q1 -1 3 -1.5t3.5 -1t3.5 -0.5q3 0 5 0.5t4 1.5t4 3t3 4q9 13 13.5 28t4.5 32q0 44 -31.5 76t-76.5 32q-9 0 -18.5 -1.5t-18 -4.5t-16.5 -8q-7 -4 -9.5 -11.5t1.5 -14.5q3 -5 7.5 -7.5t9.5 -2.5t10 3q7 4 16 6.5t18 2.5q29 0 49.5 -20.5t20.5 -49.5q0 -11 -3 -21
t-9 -18q-4 -7 -2.5 -14.5t8.5 -12.5zM753 338q12 24 10.5 46.5t-7.5 36.5t-15 23q-8 8 -17.5 14t-21 10t-24.5 6t-28 2q-48 0 -109 -19q3 15 2 28.5t-4 25t-8 21t-10 16.5t-11 12q-9 7 -19 11.5t-21.5 7t-24.5 2.5q-34 0 -74.5 -15.5t-76 -39t-52 -36t-25.5 -20.5
q-80 -72 -121 -144t-43 -142q0 -27 5.5 -53t13.5 -43t17 -31t14 -20t7 -7q22 -27 59.5 -49t71 -33t72 -19t54 -10t25.5 -3q22 -1 43 -1q53 0 101.5 7t85 18.5t69.5 28t56 33t43 35t31.5 33t21 29t12.5 20.5l5 10q24 54 3 105q-25 62 -110 104zM824 144q-1 -4 -5 -11.5
t-18.5 -27t-33 -37.5t-51 -40t-70.5 -37.5t-93.5 -26.5t-117.5 -11q-10 0 -20 0.5t-21 1.5q-6 0 -20.5 1.5t-49.5 9t-66.5 17.5t-65.5 29.5t-54 43.5q-6 6 -13.5 16t-20.5 43t-12 68q2 125 150 258q2 2 5 4.5t11.5 9t18 13.5t23 16t26.5 16.5t29 15.5t30.5 13.5t30 9
t29.5 3.5q25 0 40 -12q2 -1 4.5 -4t7.5 -12.5t7 -19.5t-0.5 -26.5t-10.5 -33.5l-23 -46l47 20q2 1 8.5 3.5t21.5 7.5t30.5 9t35.5 7t37 3q44 0 63 -20q3 -4 7 -10t4 -26.5t-13 -42.5l-13 -19l22 -9q4 -1 9.5 -3.5t21.5 -11.5t29 -19t27 -25.5t21 -32.5q14 -35 -4 -75z
M343 247q-23 0 -44 -8q-43 -15 -65 -50.5t-10 -71.5q4 -10 10.5 -18.5t15 -15.5t18.5 -12t22 -7.5t25 -2.5q22 0 44 8q43 15 64.5 50.5t9.5 71.5q-6 17 -19 29.5t-31.5 19.5t-39.5 7zM346 105q-27 -10 -53 -2t-32 27q-7 20 8 41.5t43 31.5q3 1 7 2l8 2q4 1 8 1.5t8 0.5
q19 0 34 -8.5t20 -22.5q4 -13 -1 -27.5t-18.5 -27t-31.5 -18.5zM475 266q-20 -7 -30 -24t-4 -35q5 -12 16.5 -20t27.5 -8q10 1 19 4q4 1 8 3t7.5 5t6.5 6t5.5 6t4.5 7q7 16 2 31q-6 17 -25 24.5t-38 0.5zM491 219q-12 -4 -13 1q-1 1 -0.5 2t2 2.5t3.5 3t5 2.5t6.5 1t5 -1
t1.5 -3q-4 -5 -10 -8zM456 364q-21 0 -42 -2q-113 -12 -187 -74q-78 -65 -70 -146q7 -72 79 -118.5t176 -46.5h8q4 0 8.5 0.5t8.5 0.5t8.5 0.5t8.5 0.5q112 12 187 74q78 65 70 147q-5 47 -39.5 84.5t-91 58.5t-124.5 21zM617 83q-32 -27 -75 -43.5t-92 -21.5q-20 -2 -38 -2
q-57 0 -105.5 17t-78 46.5t-33.5 66.5q-6 61 56 113q21 17 47.5 30.5t56.5 22.5t63 12q6 1 12.5 1t13 0.5t12.5 0.5q87 0 149 -37.5t67 -92.5q3 -20 -3 -39.5t-19 -38.5t-33 -35z" />
    <glyph glyph-name="uniE60A" unicode="&#xe60a;" 
d="M907 421l-395 -415l-395 415h790z" />
    <glyph glyph-name="uniE60B" unicode="&#xe60b;" 
d="M525 64l472 472h-969z" />
    <glyph glyph-name="uniE60C" unicode="&#xe60c;" 
d="M512 254l417 347l-3 1h-4h-820h-4l-3 -1zM960 565q0 3 -1 5.5t-2 5.5l-295 -246l296 -296q2 7 2 9v522zM67 576q-3 -7 -3 -11v-522q0 -2 2 -9l296 296zM633 306l-109 -91q-3 -2 -6 -3t-6 -1q-7 0 -12 4l-109 91l-298 -299h1l8 -2h820q2 0 10 2z" />
    <glyph glyph-name="uniE60D" unicode="&#xe60d;" horiz-adv-x="1045" 
d="M529 806l-484 -351q-10 -5 -5.5 -18.5t17.5 -13.5h962q14 0 18.5 11.5t-5.5 20.5l-484 351q-10 9 -19 0zM38 150l491 -357q9 -10 19 0l484 357q4 1 5.5 5t1 8.5t-3 8.5t-6.5 6.5t-10 2.5h-968q-14 0 -18.5 -13.5t5.5 -17.5zM0 181z" />
    <glyph glyph-name="uniE60E" unicode="&#xe60e;" 
d="M66 99l446 446l446 -446h-892zM66 99z" />
    <glyph glyph-name="uniE60F" unicode="&#xe60f;" 
d="M512.5 749q-93.5 0 -178.5 -36.5t-147 -98.5t-98.5 -147t-36.5 -179q0 -75 23.5 -145t66 -127t99 -99.5t127 -66t145.5 -23.5q93 0 178.5 36.5t147.5 98.5t98.5 147t36.5 179t-36.5 179t-98.5 147t-147.5 98.5t-179 36.5zM245 341q-8 0 -13.5 5.5t-5.5 13.5q0 51 32 87
t76.5 36t76.5 -36t32 -87q0 -8 -5.5 -13.5t-13.5 -5.5q-4 0 -7.5 1.5t-6 4t-4.5 6t-2 7.5q0 23 -9 42.5t-25.5 30.5t-35.5 11q-28 0 -48.5 -24.5t-20.5 -59.5q0 -8 -6 -13.5t-14 -5.5zM743 158q-12 -36 -35.5 -66t-53.5 -51t-66.5 -33t-74.5 -12q-51 0 -97.5 20.5
t-81.5 57.5t-52 85q-1 5 -0.5 10t4 9t8.5 6q5 1 10 0.5t9 -4t5 -8.5q22 -62 75.5 -99.5t119.5 -37.5q65 0 118.5 37.5t75.5 98.5q3 8 10 11.5t14.5 0.5t11 -10t0.5 -15zM780 341q-8 0 -13.5 5.5t-5.5 13.5q0 35 -20.5 59.5t-49.5 24.5q-14 0 -27 -6.5t-22.5 -18t-15 -27
t-5.5 -32.5q0 -3 -0.5 -5.5t-2.5 -4.5l-2 -4q-2 -2 -4 -3t-4.5 -1.5t-5.5 -0.5t-6 0.5t-5.5 2.5t-4 4.5t-2.5 5.5t-1 6q0 25 8.5 47.5t23 39t34.5 26.5t42 10q45 0 76.5 -36t31.5 -87q-3 -17 -19 -19z" />
    <glyph glyph-name="uniE610" unicode="&#xe610;" 
d="M768 364h-192v192q0 27 -18.5 45.5t-45.5 18.5t-45.5 -18.5t-18.5 -45.5v-192h-192q-27 0 -45.5 -18.5t-18.5 -45.5t18.5 -45.5t45.5 -18.5h192v-192q0 -27 18.5 -45.5t45.5 -18.5t45.5 18.5t18.5 45.5v192h192q27 0 45.5 18.5t18.5 45.5t-18.5 45.5t-45.5 18.5z" />
    <glyph glyph-name="uniE611" unicode="&#xe611;" 
d="M165 369h694v-138h-694v138z" />
    <glyph glyph-name="uniE612" unicode="&#xe612;" 
d="M261 389q24 20 51 32.5t50.5 15.5t39 3t28.5 -2q-8 15 -19 30.5t-32.5 37t-56 35t-74.5 13.5q-77 0 -128.5 -56.5t-51.5 -126.5v-53v-120v-155q0 -5 1.5 -11t4 -9.5t5 -6.5t3.5 -5l2 -1l95 -73l11 -5q8 1 8 13v298v1v7q0 17 3 35.5t18.5 49t41.5 53.5zM952 568
q0 9 -4 17.5t-8 12.5l-4 3l-95 74q-1 0 -2.5 1t-4.5 2.5t-5.5 1.5t-4.5 -3.5t-2 -10.5v-293v-1v-6q0 -84 -63 -138q-24 -21 -51 -33t-50.5 -15.5t-39 -3.5t-28.5 3q3 -7 7 -13.5t11 -16.5t15.5 -19.5t19 -19.5t24.5 -18.5t29.5 -15t35 -10.5t40.5 -4q26 0 50.5 7.5t44 20.5
t35.5 30.5t27 38t17 42.5t6 44v323zM647 395l3 2q26 22 59 32.5t53.5 9t36.5 -1.5q-3 6 -6 12.5t-8.5 16.5t-13 19.5t-17 19.5t-23 18.5t-29 15t-35 10.5t-42.5 4q-47 0 -81.5 -19.5t-58.5 -48.5q-35 -42 -39 -102q-3 -25 -9 -48t-13.5 -40t-15.5 -30.5t-16 -23.5t-12.5 -14
t-7.5 -7q-69 -57 -151 -41q6 -15 16 -31t30 -38t54.5 -35t76.5 -12q73 2 127 56q43 43 51 121q3 41 18 76.5t27.5 51t25.5 27.5z" />
    <glyph glyph-name="uniE613" unicode="&#xe613;" 
d="M629 718l275 -279l96 96l-180 189q-16 14 -33 26.5t-30 20.5t-23.5 13.5t-16.5 7.5l-5 2q-42 14 -82 17t-66.5 -2.5t-47.5 -12.5t-31 -14l-10 -6q31 -1 58 -7t44 -14.5t29.5 -17t17.5 -13.5zM768 273q-15 2 -25 -1.5t-12 -8.5l-3 -4l-211 -214q-8 -10 -15.5 -7.5t-12 7.5
t-4.5 6l-205 205q-7 4 -8 11.5t2 13.5l3 5l209 214q7 9 14.5 8.5t12.5 -6.5l5 -5l207 -203q8 -11 15.5 -10.5t13.5 6.5l5 5l113 110l-314 316q-103 71 -250 -3q-30 -15 -49 -29q-166 -97 -219 -291q-15 -54 -16 -92q0 -76 15.5 -143.5t40 -114t55.5 -85.5t61 -62.5
t56.5 -39.5t41 -22.5t15.5 -6.5q61 -27 123 -37t110.5 -5.5t96 19.5t78.5 31t59 36t37 27.5t13 12.5q47 38 80.5 89t48 96t22.5 85t8 63v24h-217z" />
    <glyph glyph-name="uniE614" unicode="&#xe614;" 
d="M576 364v192h-128v-192h-192v-128h192v-192h128v192h192v128h-192zM448 812h-384h-64v-64v-384h64v384h384v64zM576 812h384h64v-64v-384h-64v384h-384v64zM448 -212h-384h-64v64v384h64v-384h384v-64zM576 -212h384h64v64v384h-64v-384h-384v-64z" />
    <glyph glyph-name="uniE615" unicode="&#xe615;" 
d="M838 614q-65 65 -149.5 100t-176.5 35t-176.5 -35t-149.5 -100q-66 -66 -100.5 -152.5t-34.5 -173.5t34.5 -173.5t100.5 -152.5q65 -65 149.5 -100t176.5 -35t176.5 35t149.5 100q88 89 119.5 207.5t0 237t-119.5 207.5zM811 -11q-60 -60 -137 -91.5t-162 -31.5
t-162 31.5t-137 91.5q-60 61 -92 140t-32 159t32 159t92 140q30 29 64.5 52.5t72.5 39t79 23.5t83 8q85 0 162 -31.5t137 -91.5q81 -81 109.5 -190t0 -218t-109.5 -190zM752 434l-240 -251l-240 251q-1 2 -3 3t-4 1l-4 2h-4t-4 -1l-4 -2l-4 -2q-5 -6 -5.5 -14t5.5 -14
l253 -265q6 -6 14 -6q4 0 7.5 1.5t6.5 4.5l253 265q3 3 4.5 6.5t1.5 7.5t-2 7.5t-4 6.5q-14 11 -27 -1z" />
    <glyph glyph-name="uniE616" unicode="&#xe616;" 
d="M514 759q-75 0 -145 -23t-127 -66t-99.5 -99.5t-66 -127t-23.5 -145.5q0 -93 37 -178.5t98.5 -147.5t147 -98.5t179 -36.5t179 36.5t147 98.5t98.5 147.5t37 178.5q0 174 -115 304q-111 126 -275 152q-36 5 -72 5zM514.5 -124q-114.5 0 -212 56.5t-154 154t-56.5 212
t56.5 212t154 154t211.5 56.5q69 0 133.5 -21.5t116.5 -60.5t91 -91t60.5 -116.5t21.5 -133.5q0 -114 -56.5 -211.5t-154 -154t-212 -56.5zM403 562q-5 6 -13 6t-14 -6q-3 -4 -4.5 -8.5t0 -9.5t4.5 -9l237 -236l-237 -237q-6 -6 -6 -14t5.5 -13.5t13.5 -5.5t14 6l250 250
q5 6 6 14q0 8 -6 13z" />
    <glyph glyph-name="uniE617" unicode="&#xe617;" 
d="M81 -158h862v-54h-862v54zM410 -49l7 7l391 392l-36 36l-365 -364l-4 -5q-30 91 -97 158t-157 96l4 5l464 464l254 -255l37 -36l35 35l-327 328l-528 -527v-1l-7 -7v0v-327h328zM135 4v215q76 -25 133 -82t83 -133h-216z" />
    <glyph glyph-name="uniE618" unicode="&#xe618;" 
d="M999 -18l-343 343q26 62 27 129.5t-25 131.5t-75 114q-75 75 -179 94.5t-196 -21.5l163 -163q10 -10 16.5 -22.5t8 -25.5t0 -26t-8 -25t-16.5 -22l-60 -60q-16 -17 -38 -23t-44 0t-39 23l-163 163q-41 -92 -21.5 -196t94.5 -179t178.5 -94t196.5 21l343 -343
q25 -25 60.5 -25t60.5 25l60 60q25 25 25 60.5t-25 60.5z" />
    <glyph glyph-name="uniE619" unicode="&#xe619;" 
d="M641 584v76h-259v-76h-171v-74h602v74h-172zM239 460l44 -537h458l44 537h-546zM426 25h-70v342h70v-342zM546 25h-69v342h69v-342zM670 25h-72v342h72v-342z" />
    <glyph glyph-name="uniE61A" unicode="&#xe61a;" 
d="M829 636h-104v51q0 16 -8.5 30t-23.5 22t-32 8h-282q-26 0 -45 -17.5t-19 -42.5v-51h-122q-5 0 -10 -1t-10 -2.5t-9.5 -3.5t-8.5 -4.5t-7.5 -6t-6.5 -7t-5 -8t-3.5 -9t-2.5 -9t-1 -9.5v-50h765v50q0 7 -2 13.5t-5 12.5t-7.5 11.5t-10 9.5t-12 7t-13.5 4.5t-15 1.5z
M667 635h-294v55h294v-55zM667 635zM192 467v-17v-116v-464q0 -5 2.5 -9t6.5 -6.5t9 -2.5h605q5 0 9 2.5t6 6.5t2 9v464v116v17h-640zM364 -34h-58v394h58v-394zM481 -34h-58v394h58v-394zM599 -34h-58v394h58v-394zM716 -34h-58v394h58v-394z" />
    <glyph glyph-name="uniE61B" unicode="&#xe61b;" horiz-adv-x="1261" 
d="M630 -90l-134 139l-183 153q-38 32 -60 77.5t-22 97.5q0 93 66 159t159 66q52 0 97.5 -22t76.5 -60q32 38 77 60t97 22q93 0 159 -66t66 -159q0 -92 -63 -158l-198 -168z" />
    <glyph glyph-name="uniE61C" unicode="&#xe61c;" 
d="M947 766h-843q-7 0 -12 -4.5t-5 -11.5v-553q0 -7 4.5 -15.5t8.5 -13.5l4 -5l397 -371q2 -2 4.5 -3.5t5.5 -1.5t5.5 0.5t4.5 1.5t3 3l420 371q9 19 10 34v553v4q0 12 -7 12zM795 473l-283 -440l-267 441l-69 1v85h208l169 -299l195 298h110v-86h-63z" />
    <glyph glyph-name="uniE61D" unicode="&#xe61d;" 
d="M772 511q0 57 -21.5 108.5t-58 89t-87 59.5t-105.5 22q-74 0 -136.5 -37.5t-99 -101.5t-36.5 -140q0 -83 43.5 -151t113.5 -102q-120 -35 -213 -134t-135 -240q-1 -3 -1 -6t0.5 -6t1.5 -5.5t2.5 -4.5t3.5 -4t4.5 -3.5t5.5 -2.5q2 -1 4 -1h3q6 0 11 2t8.5 6.5t5.5 9.5
q47 159 161 256.5t253 97.5q53 0 105 -16q10 -3 19 2.5t12 15.5t-2 19.5t-15 12.5l-5 1q71 34 114.5 102t43.5 151zM500 283q-92 0 -157 67t-65 161q0 62 30 114.5t81 83t111 30.5q22 0 44 -4.5t41.5 -13.5t37.5 -21t33 -27.5t27 -34t20.5 -39t13 -43t4.5 -45.5
q0 -103 -75 -171q-63 -57 -146 -57zM964 45h-166v177q0 10 -7 17t-17 7t-17 -7t-7 -17v-177h-170q-5 0 -9.5 -1.5t-7.5 -5t-5 -8t-2 -8.5q0 -10 7 -17t17 -7h170v-165q0 -9 7 -16t17 -7t17 7t7 16v165h166q10 0 17 7t7 16.5t-7 16.5t-17 7z" />
    <glyph glyph-name="uniE61E" unicode="&#xe61e;" 
d="M485 376q0 -15 -7.5 -28.5t-21 -21.5t-29.5 -8h-206q-24 0 -41 17t-17 41v215q0 24 17 41t41 17h206q24 0 41 -17t17 -41v-215zM485 8q0 -24 -17 -41t-41 -17h-206q-24 0 -41 17t-17 41v215q0 24 17 41t41 17h206q24 0 41 -17t17 -41v-215zM862 376q0 -24 -17 -41
t-41 -17h-206q-10 0 -18.5 3t-16 8.5t-12.5 12.5t-8 16t-3 18v215q0 24 17 41t41 17h206q24 0 41 -17t17 -41v-215zM862 8q0 -24 -17 -41t-41 -17h-206q-24 0 -41 17t-17 41v215q0 24 17 41t41 17h206q24 0 41 -17t17 -41v-215z" />
    <glyph glyph-name="uniE61F" unicode="&#xe61f;" 
d="M512 748q-91 0 -174 -35.5t-143 -95.5t-95.5 -143t-35.5 -174t35.5 -174t95.5 -143t143 -95.5t174 -35.5t174 35.5t143 95.5t95.5 143t35.5 174q0 46 -9 90.5t-26 84t-41.5 76t-54.5 66.5t-66.5 54.5t-76 41.5t-84 26t-90.5 9zM636 112l-170 143l1 1v358h90v-319
l137 -115z" />
    <glyph glyph-name="uniE620" unicode="&#xe620;" 
d="M955 300q0 -90 -35 -172t-94.5 -141t-141.5 -94.5t-172 -35.5t-172 35.5t-141 94.5t-94.5 141t-35.5 172t35.5 172t94.5 141t141 94.5t172 35.5q169 0 294 -112q122 -109 144 -270q5 -31 5 -61zM771 442l-69 69l-287 -288l-93 94l-69 -68l159 -160l3 3l3 -3z" />
    <glyph glyph-name="uniE621" unicode="&#xe621;" 
d="M896 -98q0 -1 -0.5 -1.5t0.5 -1.5v3q0 -10 -6.5 -16.5t-16.5 -6.5q-6 0 -11.5 3t-9 8.5t-3.5 11.5q-16 54 -48.5 100t-76.5 79t-98.5 52t-113.5 19q-117 0 -211 -72.5t-127 -182.5v5q0 -11 -7.5 -17t-15.5 -6q-10 0 -16.5 6.5t-6.5 16.5q0 1 1 3v4q1 0 1 1v1
q28 95 97.5 166.5t164.5 101.5q-74 35 -119 104t-45 154q0 117 83 200.5t201 83.5t201 -83.5t83 -200.5q0 -85 -45 -154t-119 -104q95 -30 164.5 -101.5t97.5 -166.5l1 -5zM751 437q0 32 -8.5 63t-24 57t-37.5 48t-48.5 37.5t-57.5 24t-63 8.5q-99 0 -169 -69.5t-70 -168.5
t70 -169t169 -70t169 70t70 169z" />
    <glyph glyph-name="uniE622" unicode="&#xe622;" 
d="M513 805q-103 0 -197 -40.5t-161.5 -108t-107.5 -161.5t-40 -197t40 -196.5t107.5 -161.5t161.5 -108t197 -40t196.5 40t161.5 108t108 161.5t40 196.5q0 83 -25.5 160t-72.5 139.5t-109 109t-139.5 72.5t-159.5 26zM598 636l-24 -478h-122l-25 478h171zM510 -70
q-39 0 -62 24.5t-23 60.5q0 25 11 44.5t30.5 30.5t44.5 11q38 0 61.5 -24t23.5 -62q0 -37 -24 -61t-62 -24zM509 -151z" />
    <glyph glyph-name="uniE623" unicode="&#xe623;" 
d="M895 -161v822l-134 114l-447 -162v-40l406 132v-925h270v59h-95zM169 92l213 42v104l-213 -54v-92zM169 -222h213v110l-213 -15v-95zM169 -64l213 20v104l-213 -35v-89zM169 252l213 57v108l-213 -70v-95zM618 522l-121 71l-452 -158v-659h59v627l339 108v-732h175v743z
" />
    <glyph glyph-name="uniE624" unicode="&#xe624;" horiz-adv-x="1030" 
d="M0 209l8 -4zM518 649q-95 0 -175.5 -46.5t-127 -127t-46.5 -175.5t46.5 -175.5t127 -127t175.5 -46.5q71 0 135.5 27.5t111.5 74.5t74.5 111.5t27.5 135.5q0 95 -46.5 175.5t-127 127t-175.5 46.5zM762 443l-246 -327l-237 173q-9 6 -10.5 16.5t5 19t17 10t18.5 -4.5
l197 -143l215 287q6 8 16.5 9.5t19 -4.5t10 -16.5t-4.5 -19.5z" />
    <glyph glyph-name="uniE625" unicode="&#xe625;" 
d="M520 633l106 -193l216 -42l-151 -160l28 -219l-199 94l-199 -94l27 219l-150 160l216 42z" />
    <glyph glyph-name="uniE626" unicode="&#xe626;" 
d="M64 748v-256h384v256h-384zM384 556h-256v128h256v-128zM64 428v-192h384v192h-384zM384 300h-256v64h256v-64zM512 748v-512h448v512h-448zM896 300h-320v384h320v-384zM64 172v-320h896v320h-896zM896 -84h-768v192h768v-192z" />
    <glyph glyph-name="uniE627" unicode="&#xe627;" 
d="M957 717l1 10q0 9 -5 14q-6 6 -14 6h-11v0h-256q-6 0 -11 -2.5t-7.5 -7.5t-2.5 -10v-15q1 -9 7.5 -15t15.5 -6h188l-224 -222q-46 39 -103.5 60t-120.5 21q-95 0 -175.5 -46.5t-127 -127t-46.5 -175.5t46.5 -175.5t127 -127t175.5 -46.5t175.5 46.5t127 127t46.5 175.5
q0 130 -85 229l224 222v-191q-1 -8 5 -14.5t15 -6.5h14q6 0 10.5 2.5t7.5 6.5t3 9v258v1zM708 201q0 -122 -86 -208t-208 -86t-208 86t-86 208t86 208t208 86t208 -86t86 -208z" />
    <glyph glyph-name="uniE628" unicode="&#xe628;" 
d="M606 747q-71 0 -135 -27.5t-110.5 -74t-74 -111t-27.5 -135.5q0 -127 82 -224l-111 -111l-117 118q-8 8 -19.5 8t-19.5 -8t-8 -19.5t8 -19.5l117 -119l-118 -119q-8 -8 -8 -19.5t8 -19.5t19.5 -8t19.5 8l118 119l119 -120q8 -8 19.5 -8t19.5 8t8 19.5t-8 19.5l-118 120
l110 111q98 -83 226 -83q71 0 135 27.5t111 74t74.5 111t27.5 134.5q0 95 -46.5 175t-126.5 126.5t-175 46.5zM606 107q-79 0 -146.5 39t-106.5 106.5t-39 146.5q0 121 85.5 207t206.5 86q80 0 147 -39.5t106 -106.5t39 -147q0 -123 -88 -209q-85 -83 -204 -83z" />
    <glyph glyph-name="uniE629" unicode="&#xe629;" 
d="M512 738q-45 0 -89.5 -9t-84 -25.5t-75.5 -41t-66 -54.5t-54.5 -66t-41.5 -76t-26 -84t-9 -90q0 -90 35.5 -172.5t95 -142.5t142 -95t173.5 -35q73 0 141 22.5t123 63.5t96 96t63.5 123t22.5 140.5t-22.5 140.5t-63.5 123t-96 96t-123 63.5t-141 22.5zM568 16h-103
l-1 225l-225 -1v103h225v226h102l1 -225h225v-102l-225 -1z" />
    <glyph glyph-name="uniE62A" unicode="&#xe62a;" horiz-adv-x="1000" 
d="M952 -58l-280 258q70 89 70 202q0 30 -5.5 59t-15.5 55.5t-24.5 51.5t-33 46.5t-40 39.5t-46.5 32.5t-52 24.5t-56.5 15t-59.5 5q-45 0 -88.5 -11.5t-80 -33t-67 -52t-52 -66.5t-33.5 -78.5t-12 -87.5q0 -90 44.5 -165.5t121.5 -120t167 -44.5q122 0 215 78l276 -251z
M105 403q0 124 90 211.5t217 87.5t217 -87.5t90 -211.5q0 -81 -41 -150t-112 -109t-154 -40q-127 0 -217 87.5t-90 211.5z" />
    <glyph glyph-name="uniE62B" unicode="&#xe62b;" 
d="M929 303q0 176 -124.5 300.5t-299.5 124.5q-116 0 -213.5 -57t-154.5 -154.5t-57 -213t57 -213.5t154.5 -154.5t213.5 -56.5q141 0 255 87q5 5 5 12q0 8 -5.5 13.5t-13.5 5.5q-4 0 -7.5 -1.5t-5.5 -4.5h-1q-102 -75 -227 -75q-105 0 -193.5 51.5t-140 140t-51.5 193
t51.5 193t140 140t193 51.5t193.5 -51.5t140 -140t51 -193.5q0 -97 -43 -179v-1q-1 -3 -1 -5q0 -16 15 -18q2 -1 4 -1q13 0 17 13q48 92 48 194zM505 404q-11 14 -23.5 24.5t-28.5 17.5t-32 7q-32 0 -59 -17t-43 -46.5t-16 -63.5q0 -25 14.5 -55t34.5 -49q24 -29 81.5 -78
t71.5 -49q7 0 27 14.5t43.5 34t46.5 41.5t35 37q20 19 34.5 49t14.5 55q0 10 -1.5 20t-4.5 19.5t-7.5 18.5t-9.5 17t-11.5 15t-14 12.5t-15.5 10t-16.5 8t-18 5t-19.5 1.5q-46 0 -83 -49zM661 326q0 -16 -11 -38t-25 -34q-1 -1 -2 -3q-21 -26 -55 -55t-63 -51
q-83 60 -119 106q0 1 -1 2t-2 1q-13 13 -24 34.5t-11 37.5t6 31.5t15.5 26.5t23 17.5t28.5 6.5q12 0 24.5 -8.5t22 -21t16.5 -26.5q4 -8 12.5 -10.5t16.5 0t12 10.5q7 14 16.5 26.5t22 21t24.5 8.5q20 0 37 -11t26.5 -30t9.5 -41z" />
    <glyph glyph-name="uniE62C" unicode="&#xe62c;" 
d="M957 599v1v0q-3 7 -9 12h-1l-1 1q-7 5 -14 5h-841q-2 0 -4.5 -0.5t-4.5 -1.5t-4 -3q-2 -1 -3 -1q-3 -3 -5 -5.5t-4 -6.5v-1v0l-2 -8v-578q0 -8 4 -14t10 -9.5t13 -3.5h421h420q11 0 19 7.5t8 19.5v578q0 3 -2 8zM858 564l-251 -213v0l-95 -81l-347 294h693zM512 40h-394
v492l242 -204l-152 -171q-3 -3 -4.5 -7t-2 -8t0.5 -8t3 -8t6 -7q7 -7 18 -7q12 0 20 9l152 172l93 -79q4 -3 8.5 -5t9.5 -2q9 0 17 7l93 79l152 -172q8 -9 21 -9q4 0 9 2t8 5q6 5 8 12t1 14t-6 12l-152 171l242 204v-492h-393z" />
    <glyph glyph-name="uniE62D" unicode="&#xe62d;" 
d="M257 429h511v-64h-511v64zM257 300h511v-63h-511v63zM256 108h191v-64h-191v64zM704 172h63v-63h-63v63zM640 108h63v-64h-63v64zM576 44h63v-63h-63v63zM512 109h63v-63h-63v63zM832 620h-129v63h-129v66h-127v-66h-126v-63h-130q-17 0 -32 -8.5t-24 -23.5t-9 -33v-635
q0 -27 19 -46t46 -19h641q13 0 25 5t20.5 14t14 21t5.5 25v635q0 11 -3.5 21t-9.5 18t-14 14t-18 9t-20 3zM833 -80l-1 -2h-641q-1 0 -1 2v635q0 2 1 2h641v-1q1 0 1 -1v-635z" />
    <glyph glyph-name="uniE62E" unicode="&#xe62e;" 
d="M1011 22l-234 186q-2 2 -4 1l-3 -3v-125h-174q-11 0 -19 -6t-12 -16q-2 -2 -2 -4v-77q0 -3 2 -5q4 -9 12 -15t19 -6h174v-126l3 -2q2 -1 4 0l234 186q2 2 3 3.5t1 2.5q0 4 -4 6zM696 229q-17 10 -34.5 19t-35.5 16q57 39 90.5 101t33.5 135q0 119 -85 203.5t-205 84.5
q-119 0 -203 -84t-84 -203q0 -72 33.5 -134t90.5 -101q-129 -51 -208 -165.5t-79 -255.5h80q0 141 94.5 246t232.5 122h6t15.5 0.5t21 1t25 0t25.5 -1.5h4q9 -2 19 -4t19 -4t18.5 -5t18.5 -6.5t18 -7.5q13 10 27.5 17.5t29.5 14t32 11.5zM460 285q-44 0 -84 17t-69 46
t-46 69t-17 84q0 59 29 109t78.5 79t108.5 29t109 -29t79 -79t29 -109q0 -89 -63.5 -152.5t-153.5 -63.5z" />
    <glyph glyph-name="uniE62F" unicode="&#xe62f;" 
d="M913 633q-34 6 -73 19.5t-62.5 23.5t-67.5 31t-59 28q-10 5 -42 23t-57.5 26t-57.5 7q-9 0 -15.5 -1t-12.5 -3t-11 -4t-12 -5q-31 -13 -79 -37.5t-83.5 -42.5t-85.5 -36.5t-97 -28.5q0 -97 12.5 -182.5t32.5 -150.5t52.5 -124t64.5 -100.5t77.5 -83t83 -69t87.5 -60.5
q187 101 297 301t108 469zM507 -26q-94 47 -167 141.5t-113 217.5t-38 252q59 10 124.5 39t114.5 52.5t77 23.5q23 0 51.5 -10t58.5 -25t61.5 -30.5t70 -29.5t74.5 -20q2 -81 -14 -161t-45.5 -147.5t-69.5 -126.5t-87 -103t-98 -73zM461 565v-272h90v272h-90zM461 180h90v67
h-90v-67z" />
    <glyph glyph-name="uniE630" unicode="&#xe630;" 
d="M512 648q-57 0 -110.5 -17.5t-96.5 -50t-75 -75.5t-50 -96.5t-18 -110.5q0 -95 47 -175.5t127.5 -127t175.5 -46.5t175.5 46.5t127.5 127t47 175.5q0 142 -98 243q-97 101 -237 107h-15zM583 588l-21 -407h-103l-21 407h145zM510 -12q-33 0 -53 21t-20 51q0 32 21 52.5
t53 20.5q16 0 29.5 -5.5t22.5 -15t14.5 -23t5.5 -29.5q0 -49 -42 -66q-15 -6 -31 -6z" />
    <glyph glyph-name="uniE631" unicode="&#xe631;" 
d="M874.5 662q-98.5 98 -230.5 133t-264 0t-230 -133t-133 -230t0 -264t133 -230.5t230 -133.5t264 0t230.5 133.5t133.5 230.5t0 264t-133.5 230zM512.5 -164q-94.5 0 -180.5 36.5t-148 98.5t-99 148t-37 180.5t37 180.5t99 148t148 99t180.5 37t180.5 -37t148 -99
t98.5 -148t36.5 -180.5t-36.5 -180.5t-98.5 -148t-148 -98.5t-180.5 -36.5zM686 480l-265 -275l-83 86q-11 11 -27 11t-27.5 -11.5t-11.5 -28.5t11 -28l110 -114q12 -12 28 -12t27 12q1 0 1.5 1t1.5 2l290 300q11 12 11 29t-11 28.5t-27.5 11.5t-27.5 -12z" />
    <glyph glyph-name="uniE632" unicode="&#xe632;" 
d="M195 426q31 0 46 -19.5t15 -43.5v-447h-193v443q0 32 20 49.5t44 17.5h68zM514 678q28 0 44 -17t16 -40v-705h-191v702q0 16 6 27t15.5 18.5t20.5 11t20 3.5h69zM833 234q9 0 19.5 -5t20.5 -14t16.5 -21t6.5 -25v-253h-191v251q0 11 4.5 23.5t12.5 22t19.5 15.5t24.5 6
h67z" />
    <glyph glyph-name="uniE633" unicode="&#xe633;" 
d="M644 -105q-25 0 -41 18q-9 9 -22 20t-33 22t-36 11q-23 0 -49.5 -18t-41.5 -34q-16 -18 -41 -18q-6 0 -11 1.5t-10 3.5h-1l-107 60l-1 1q-14 10 -19 27.5t2 33.5q10 23 10 43q0 47 -33 80t-80 33h-4q-5 0 -9 1.5t-8 4t-7 6t-5.5 8t-4.5 10t-3 11.5q-10 48 -10 85
q0 10 1 22.5t2 22.5l4 20q1 10 1.5 14t1.5 6q1 9 4.5 17t8.5 13t11.5 8t12.5 2h4q47 0 80 33.5t33 79.5q0 21 -10 44q-3 8 -3.5 16.5t1.5 17t7 15.5t12 12l2 1l112 62h1q3 2 6.5 3t6.5 1h8q25 0 41 -16q15 -17 41 -34t48 -17t47.5 17t41.5 33q5 5 11.5 8.5t14 5.5t14.5 2h6
q3 0 5.5 -0.5t5 -1.5t4.5 -2l2 -1l108 -60l1 -1q15 -10 20 -27.5t-2 -33.5q-10 -23 -10 -44q0 -15 4 -29.5t11 -27t17.5 -23t23 -17.5t27 -11.5t30.5 -4.5h3q14 1 24.5 -10t13.5 -30q9 -48 9 -85t-9 -85q-3 -19 -13.5 -30t-24.5 -11h-3q-31 0 -57 -15t-41 -41t-15 -57
q0 -20 10 -43q7 -16 2 -33.5t-20 -27.5l-1 -1l-110 -61l-1 -1q-5 -2 -10 -3t-11 -1zM641 -53l3 -1l103 57q-13 33 -13 63q0 66 45 113.5t110 50.5q0 2 0.5 3.5t0.5 4.5l2 6q0 3 0.5 7t1.5 9v8l2 10v8q1 5 1 10v9q0 30 -8 75q-43 2 -78.5 24t-56 59t-20.5 80q0 31 13 64
l-101 56h-1q-2 0 -3 -1q-3 -2 -6.5 -5.5t-12.5 -11.5t-19 -15q-23 -16 -45.5 -24.5t-42.5 -8.5q-41 0 -89 34q-22 16 -37 32l-4 1h-1l-105 -57q3 -6 5.5 -13t5.5 -22t3 -29q0 -43 -20.5 -80t-56.5 -59t-78 -24q-2 -8 -3.5 -17t-3 -27t-1.5 -31q0 -30 8 -75q65 -3 110 -50.5
t45 -113.5q0 -13 -3 -28t-5.5 -22t-5.5 -13l100 -55h2h1l7 6q3 4 12.5 12.5t18.5 15.5q49 35 91 35q14 0 28.5 -4t30 -12t31.5 -20q23 -16 39 -34zM512 155q-41 0 -75.5 20t-54.5 55t-20 75.5t20 75.5t54.5 55t75.5 20q62 0 106 -44t44 -106.5t-44 -106.5t-106 -44zM512 405
q-41 0 -70 -29t-29 -70.5t29 -70.5t70 -29q27 0 50 13.5t36 36.5t13 50q0 41 -29 70t-70 29z" />
    <glyph glyph-name="uniE634" unicode="&#xe634;" 
d="M787 281l-7 7q-4 4 -18.5 15t-30 21.5t-39.5 23.5t-48 22t-55 15.5t-62 6.5q-41 0 -86.5 -11.5t-81 -28t-64.5 -32.5t-45 -27l-16 -12l-82 34v-99q10 -3 16.5 -11.5t6.5 -18.5q0 -7 -3 -13.5t-8 -10.5t-12 -6l24 -107h-71l24 107q-20 8 -20 30q0 21 20 29v110l-119 49
l523 232l480 -235zM520.5 336q42.5 0 82.5 -8.5t66.5 -20t47.5 -23t30 -19.5l10 -9v-192q-4 -2 -11 -6t-30.5 -15t-50 -19t-69 -14.5t-87.5 -6.5t-84 6t-63 15.5t-41 18.5t-24 15l-7 6v192q3 4 9.5 9t28 19t46.5 24.5t64.5 19t82 8.5zM518 38q79 0 134.5 14t55.5 33
t-55.5 33t-134.5 14t-134.5 -14t-55.5 -33q0 -8 9.5 -15t27 -13t41 -10t52.5 -6.5t60 -2.5z" />
    <glyph glyph-name="uniE635" unicode="&#xe635;" 
d="M772 171v0v0zM626 171v0v0zM772 510q0 7 -1.5 12.5t-5 11.5t-5 8.5t-7 9t-6.5 7.5q-6 8 -21 13.5t-28 5.5q-5 0 -10 -1t-10.5 -2.5t-10.5 -4t-9.5 -5.5t-7.5 -6q-10 -12 -17 -27t-7 -22v-339q4 -8 19.5 -35.5t30.5 -51.5l14 -25q1 -2 2 -3.5t3 -2.5t4 -1q1 0 2.5 0.5
t2.5 1.5l2 2q1 1 2 3l6 11l15 25t17.5 31t16 28.5t9.5 16.5v167v172v0zM707 209q-1 -4 -3.5 -24.5t-4.5 -29.5q-2 10 -4.5 30t-2.5 24v135v119v3v2v4v9h4h3h6h2v-18v-92v-162v0zM723 171zM889 -148h-754q-19 0 -36 9.5t-26.5 26.5t-9.5 36v754q0 30 21 51t51 21h754
q30 0 51 -21t21 -51v-754q0 -19 -9.5 -36t-26.5 -26.5t-36 -9.5zM143 -68h738v738h-738v-738zM486 519h-242q-17 0 -29 11.5t-12 28.5q0 11 5.5 20t15 14.5t20.5 5.5h242q11 0 20.5 -5.5t14.5 -14.5t5 -20q0 -17 -11.5 -28.5t-28.5 -11.5zM486 353h-242q-17 0 -29 11.5
t-12 28.5q0 11 5.5 20t15 14.5t20.5 5.5h242q11 0 20.5 -5.5t14.5 -14.5t5 -20t-5 -20.5t-14.5 -14.5t-20.5 -5zM486 198h-242q-17 0 -29 12t-12 29q0 11 5.5 20t15 14.5t20.5 5.5h242q11 0 20.5 -5.5t14.5 -14.5t5 -20t-5 -20.5t-14.5 -15t-20.5 -5.5zM486 32h-242
q-17 0 -29 12t-12 28.5t12 28.5t29 12h242q17 0 28.5 -12t11.5 -28q0 -11 -5 -20.5t-14.5 -15t-20.5 -5.5z" />
    <glyph glyph-name="uniE636" unicode="&#xe636;" 
d="M509 -141q-45 0 -87 42l-319 322q-25 32 -37.5 50.5t-24.5 54t-12 75.5q0 106 75 181t181 75q40 0 77.5 -11.5t69.5 -34.5q8 -5 11.5 -13t2.5 -16.5t-6 -15.5q-4 -5 -9.5 -8.5t-11 -4.5t-12 0.5t-11.5 4.5q-13 9 -26 15.5t-27 11t-28.5 6.5t-29.5 2q-79 0 -135.5 -56
t-56.5 -136q0 -42 13 -69.5t46 -68.5l316 -319q8 -8 15 -13t13.5 -7.5t12.5 -2.5t12.5 2.5t13.5 7.5t15 13l317 320q58 62 58 137q0 80 -56 136t-136 56q-24 0 -47 -5.5t-44 -17t-38 -27.5l-134 -134q-5 -5 -11 -7.5t-12 -2.5t-12 2.5t-11 7.5q-9 9 -9 22.5t9 22.5l135 135
q37 33 81.5 50.5t92.5 17.5q106 0 181 -75t75 -181q0 -100 -76 -182l-317 -320q-42 -42 -87 -42z" />
    <glyph glyph-name="uniE637" unicode="&#xe637;" 
d="M809 718h-591q-30 0 -51 -21.5t-21 -51.5v-730q0 -29 21 -50.5t51 -21.5h497l167 172v630q0 30 -21.5 51.5t-51.5 21.5zM711 -90v68q0 8 4 15t11 10.5t15 3.5h62zM835 60h-89q-34 0 -58 -24t-24 -57v-86h-442q-12 0 -20.5 8.5t-8.5 20.5v714q0 5 2 10.5t6 9.5t9.5 6.5
t11.5 2.5h583q8 0 15 -4t11 -11t4 -14v-576zM266 487h383q10 0 17.5 7.5t7.5 17.5t-7.5 17.5t-17.5 7.5h-383q-10 0 -17 -7.5t-7 -17.5q0 -5 2 -9.5t5 -8t7.5 -5.5t9.5 -2zM267 417q-11 0 -18 -7.5t-7 -17.5q0 -5 2 -10t5 -8t8 -5t10 -2h326q10 0 17.5 7t7.5 18q0 6 -3.5 12
t-9 9.5t-12.5 3.5h-326zM715 296h-449q-6 0 -12 -3t-9 -9t-3 -12.5t3 -12.5t9 -9.5t12 -3.5h449q6 0 12 3.5t9 9.5t4 12q0 11 -7.5 18t-17.5 7z" />
    <glyph glyph-name="uniE638" unicode="&#xe638;" 
d="M512 215q-109 0 -186.5 77.5t-77.5 187t77.5 187t186.5 77.5q43 0 83.5 -13.5t73 -38t57 -57t37.5 -73t13 -83.5q0 -109 -77.5 -186.5t-186.5 -77.5zM512 703q-93 0 -158.5 -65.5t-65.5 -158.5q0 -61 30 -112.5t81.5 -81.5t112.5 -30q46 0 87.5 18t71.5 48t47.5 71.5
t17.5 86.5q0 93 -65.5 158.5t-158.5 65.5zM910 -144h-40q0 73 -28.5 139.5t-76.5 114.5t-114 76.5t-139 28.5t-139 -28.5t-114 -76.5t-76.5 -114.5t-28.5 -139.5h-40q0 108 53 200t145 145.5t200 53.5t200 -53.5t145 -145.5t53 -200z" />
    <glyph glyph-name="uniE639" unicode="&#xe639;" horiz-adv-x="1058" 
d="M722 -212q-91 0 -168.5 45t-122.5 122.5t-45 168.5q0 68 26.5 130t71.5 107t107.5 71.5t130.5 26.5q91 0 168.5 -44.5t122.5 -122t45 -168.5t-45 -168.5t-122.5 -122.5t-168.5 -45zM722 392q-111 0 -190 -78.5t-79 -190t79 -190t190 -78.5q73 0 135 36t97.5 98t35.5 135
q0 111 -78.5 189.5t-189.5 78.5zM737 -42l-1 -2q-1 -2 -2 -3q-5 -5 -11.5 -7.5t-13 -2.5t-12.5 2.5t-11 7.5l-119 118q-3 4 -5 8t-3.5 8t-1.5 8.5t1.5 8.5t3.5 8t5 7q10 10 24 10t24 -10l89 -89l144 219q8 11 22 12.5t25 -7t12.5 -22.5t-7.5 -25zM814 667q0 19 -13.5 32.5
t-32.5 13.5h-18q-3 -1 -5.5 -1.5t-5.5 -0.5q-4 0 -8 1t-7 2.5t-6 4t-5.5 5.5t-4 6t-2.5 7t-1 8q0 14 10 23.5t24 9.5q5 0 11 -2h35q38 0 65 -27t27 -65v-188q-29 12 -63 20v151zM621 678q-14 0 -23.5 9.5t-9.5 23.5v67q0 14 9.5 24t23.5 10q9 0 17 -4.5t12.5 -12t4.5 -17.5
v-67q0 -14 -10 -23.5t-24 -9.5zM436 678q-13 0 -23 9.5t-10 23.5v67q0 14 10 24t23 10q10 0 17.5 -4.5t12 -12t4.5 -17.5v-67q0 -4 -1 -8.5t-3.5 -8t-5.5 -7t-6.5 -5.5t-8 -3t-9.5 -1zM92 -101q-38 0 -65 27t-27 66v692q0 38 27 65t65 27h31q6 2 11 2q9 0 17 -4.5t12.5 -12
t4.5 -16.5q0 -14 -10 -24t-24 -10q-3 0 -5.5 0.5t-5.5 1.5h-14q-19 0 -32.5 -13.5t-13.5 -32.5v-659q0 -19 13.5 -32.5t32.5 -13.5h244q5 -11 10.5 -21.5t11.5 -21t12 -20.5h-295zM252 678q-14 0 -24 9.5t-10 23.5v67q0 7 3 13.5t7.5 11t10.5 7t13 2.5q9 0 16.5 -4.5t12 -12
t4.5 -17.5v-67q0 -7 -2.5 -13t-7 -10.5t-10.5 -7t-13 -2.5z" />
    <glyph glyph-name="uniE63A" unicode="&#xe63a;" 
d="M117 621h485v31h-515v-765h68v31h-38v703zM820 -82h-304v-31h335v542h-31v-511zM936.5 623q-1.5 6 -6.5 10l-167 113q-13 8 -21 -4l-480 -688l-3 -5l-47 -177q-1 -3 -0.5 -5.5t1.5 -5t3 -4.5q5 -5 11 -5q2 0 4 1l212 61q6 1 9 6l482 691q4 6 2.5 12zM284 24l121 -89
l-156 -45zM436 -50l-138 102l380 545l138 -101zM834 521l-138 102l62 89l142 -96z" />
    <glyph glyph-name="uniE63B" unicode="&#xe63b;" 
d="M1016 -116l-450 880q-18 36 -54 36q-8 0 -16 -2.5t-15 -7t-12.5 -11t-10.5 -15.5l-449 -880q-9 -17 -9 -37.5t9 -37.5q9 -16 23 -25.5t31 -9.5h899q35 0 53 35q20 38 1 75v0zM566 -36q0 -9 -5 -15q-1 -1 -3 -2.5t-4 -2t-4 -0.5h-58q-7 0 -12 5.5t-5 14.5v34q0 8 5 14
t12 6h58q6 0 11 -6t5 -14v-34zM561 116q-4 -6 -11 -6h-58q-6 0 -11 6t-5 15l-1 143v225q0 8 5 14t12 6h58q2 0 4 -0.5t4 -2t3 -3.5q3 -3 4 -6.5t1 -7.5v-223v-146q0 -8 -5 -14v0zM561 116z" />
    <glyph glyph-name="uniE63C" unicode="&#xe63c;" 
d="M844 377q-12 44 -34 83l65 98l-93 93l-98 -65q-13 7 -26.5 13.5t-27.5 11.5t-29 9l-23 116h-132l-23 -116q-44 -11 -83 -34l-98 65l-93 -93l65 -98q-22 -39 -34 -83l-115 -23v-131l115 -24q12 -43 34 -82l-65 -99l93 -93l98 66q39 -23 83 -35l23 -115h132l23 115
q15 4 29 9.5t27.5 11.5t26.5 14l98 -66l93 93l-65 99q22 39 34 82l116 24v131zM668 288q0 -25 -8 -48.5t-22.5 -43t-33.5 -33.5t-43 -22t-49 -8q-64 0 -109.5 45.5t-45.5 110t45.5 110t109.5 45.5q76 0 123 -60q32 -43 33 -96z" />
    <glyph glyph-name="uniE63D" unicode="&#xe63d;" 
d="M748 469h-287v141q0 26 -16 35t-39 -6l-278 -180q-22 -15 -22 -35.5t22 -34.5l276 -179q16 -9 28.5 -7.5t20.5 12t8 24.5v122h206q32 0 56 -14.5t34.5 -35.5t16.5 -42t7 -35v-15q-1 0 0 -8.5t-1.5 -23t-5 -31.5t-11.5 -34t-20.5 -31t-31 -23t-44.5 -9h-425q-2 0 -5.5 -1
t-12 -4.5t-15 -9t-12 -16.5t-5.5 -26q0 -23 12.5 -36.5t25.5 -15.5l12 -1h506q35 0 63 15t45 39t30 53t18.5 58.5t9 53.5t4.5 39v15q0 5 -0.5 14t-4 34.5t-9 49t-18.5 52t-30 49t-45 34.5t-63 14z" />
    <glyph glyph-name="uniE63E" unicode="&#xe63e;" 
d="M512 716q-23 0 -39 -17l-155 -172q-3 -4 -5.5 -8t-4 -8t-2.5 -9t-1 -10q0 -21 15 -36.5t37 -15.5q7 0 14 2.5t13 6t11 9.5l65 72v-339q0 -22 15 -37t36.5 -15t36.5 15t15 37v339l65 -72q16 -18 39 -18q21 0 36 15.5t15 36.5q0 20 -13 35l-155 172q-7 8 -17 12.5t-21 4.5z
M856 194v-207h-689v207q0 5 -0.5 9.5t-2.5 8.5l-4 8q-2 4 -5 7.5t-6 6t-7 5t-8.5 4t-9 2.5t-8.5 1q-22 0 -37 -15.5t-15 -36.5v-258q0 -11 4 -20.5t11 -16.5t16.5 -11t20.5 -4h792q7 0 13.5 2t12.5 5t10.5 8t8 10.5t5 12.5t1.5 14v258q0 14 -6.5 26t-18.5 19t-26 7
q-33 0 -47 -30q-5 -11 -5 -22z" />
    <glyph glyph-name="uniE63F" unicode="&#xe63f;" horiz-adv-x="1400" 
d="M1084 167q-16 -59 -48 -113q-5 -7 -13.5 -9.5t-16 2.5t-9.5 13.5t2 16.5q29 47 44 101q20 75 10 150.5t-49 143t-99.5 114t-135.5 66.5q-50 13 -100.5 13t-99.5 -13t-94 -39q-27 -15 -50.5 -34.5t-43.5 -41.5t-36.5 -47.5t-29 -53.5t-20.5 -58q-27 -101 0 -200.5
t99.5 -173t174.5 -100.5q77 -21 155 -9.5t146 53.5q4 2 8.5 3t8.5 0t7.5 -3.5t5.5 -6.5q5 -8 3 -16.5t-10 -13.5q-26 -15 -53 -27t-55.5 -20t-57 -12t-58.5 -4q-56 0 -111 15q-113 30 -194 111t-111 192t0 223q23 84 74.5 151.5t126.5 110.5q49 28 103.5 42.5t111 14.5
t111.5 -14q113 -31 194 -112t111 -192t-1 -223v0zM669 257q-4 0 -8 1.5t-7 4.5t-5 7t-2 8v258q0 5 2 9t5 6.5t7 4.5t8 2t8 -2t7 -4.5t4.5 -6.5t1.5 -9v-258q0 -9 -6 -15t-15 -6zM884 257h-215q-4 0 -8 1.5t-7 4.5t-5 7t-2 8q0 6 3 11t8 8t11 3h215q4 0 8 -2t7 -4.5t5 -6.5
t2 -9q0 -9 -6.5 -15t-15.5 -6z" />
    <glyph glyph-name="uniE640" unicode="&#xe640;" 
d="M884 554q-3 -3 -10 -9l-14 -12q-7 -6 -10 -9q33 -49 51.5 -107t18.5 -120q0 -109 -54 -202t-147 -147t-202.5 -54t-202.5 54t-147 147t-54 202.5t54 202.5t147 147t202 54q158 0 274 -107l12 -12q4 5 16 17l15 15q-62 62 -144 97t-173 35q-186 0 -317 -131.5t-131 -317.5
q0 -91 35.5 -174t95.5 -143t143 -95.5t174 -35.5t174 35.5t143.5 95.5t96 143t35.5 174q0 142 -81 257zM647 559l-84 -155q-33 -63 -41 -84h-1q-11 25 -42.5 85t-83.5 154h-79l147 -253h-120v-55h141v-77h-141v-57h141v-112h70v112h137v57h-137v77h137v55h-117l148 253h-75z
" />
    <glyph glyph-name="uniE641" unicode="&#xe641;" 
d="M512 -212l-17 12q-90 60 -179 159q-199 223 -199 458q0 107 53 198t144 144t198 53t198 -53t144 -144t53 -198q0 -74 -20.5 -147.5t-51 -130.5t-73 -113t-78 -92.5t-74.5 -70t-55 -45.5t-26 -18zM512 751q-91 0 -168 -45t-121.5 -122t-44.5 -167q0 -81 29 -162.5
t67.5 -140.5t90.5 -115.5t84.5 -85t62.5 -50.5q20 15 41 32.5t55.5 50.5t65 67.5t63 82.5t56 96t38.5 107t15 118q0 90 -44.5 167t-121.5 122t-168 45zM514 190q-45 0 -83.5 22.5t-61 60.5t-22.5 84q0 68 49 117t118 49t118 -49t49 -117q0 -20 -4.5 -38.5t-13 -35t-19.5 -31
t-25.5 -26t-31 -19.5t-35.5 -12.5t-38 -4.5zM514 462q-9 0 -17 -1.5t-16 -4t-15.5 -6.5t-14 -8.5t-12 -10.5t-10.5 -12.5t-8.5 -13.5t-6.5 -15t-4 -16.5t-1 -16.5q0 -44 30.5 -75t74.5 -31t74.5 31t30.5 74.5t-30.5 74.5t-74.5 31z" />
    <glyph glyph-name="uniE642" unicode="&#xe642;" 
d="M512 672q-158 0 -271 -113t-113 -271t113 -271t271 -113t271 113t113 271t-113 271t-271 113zM512 -32q-134 0 -227 93t-93 227t93 227t227 93t227 -93t93 -227t-93 -227t-227 -93zM640 314h-96v192q0 14 -9 23t-23 9t-23 -9t-9 -23v-224q0 -15 9 -23.5t23 -8.5v0h128
q14 0 23 8.5t9 23.5q0 9 -4 16.5t-11 11.5t-17 4z" />
    <glyph glyph-name="uniE643" unicode="&#xe643;" horiz-adv-x="1028" 
d="M898 758q16 0 31 -6t26 -17t17.5 -26t6.5 -32v-759q0 -23 -11 -41.5t-29.5 -29.5t-40.5 -11h-760q-22 0 -40.5 11t-29.5 29.5t-11 41.5v759q0 22 11 41t29.5 29.5t40.5 10.5h760zM898 806h-760q-26 0 -50 -10t-41.5 -27.5t-27.5 -41.5t-10 -50v-759q0 -54 38 -92t91 -38
h760q35 0 65 17.5t47 47t17 64.5v760q0 26 -10 50t-27.5 41.5t-41.5 27.5t-50 10zM261 37l211 550h78l225 -550h-83l-64 167h-230l-60 -167h-77zM419 263h187l-58 152q-26 70 -39 114q-10 -53 -29 -105z" />
    <glyph glyph-name="uniE644" unicode="&#xe644;" 
d="M222 143q-8 0 -13.5 -5.5t-5.5 -13t5.5 -13t13.5 -5.5h231q8 0 13.5 5.5t5.5 13.5v364q0 8 -5.5 13.5t-13.5 5.5h-231q-8 0 -13.5 -5.5t-5.5 -13t5.5 -13t13.5 -5.5h213v-145h-213q-8 0 -13.5 -5t-5.5 -13t5.5 -13t13.5 -5h213v-147h-213zM840 125v364q0 8 -5 13.5
t-13 5.5h-232q-7 0 -12.5 -5.5t-5.5 -13.5v-364q0 -8 5.5 -13.5t12.5 -5.5h232q8 0 13 5.5t5 13.5zM804 143h-195v328h195v-328zM877 735h-117v21q0 7 -5 12.5t-13 5.5q-5 0 -9.5 -2.5t-7 -6.5t-2.5 -9v-21h-403v21q0 7 -5.5 12.5t-13 5.5t-13 -5.5t-5.5 -12.5v-21h-116
q-13 0 -26 -3t-24 -9t-21 -13.5t-18 -17.5t-13.5 -21t-8.5 -24t-3 -26v-589q0 -47 33.5 -80t80.5 -33h487v0h2q2 0 6 -1h8q4 -1 10 -1.5t11 -1.5q41 -9 63 -32q1 -2 3.5 -3.5t5 -2t4.5 -0.5q3 0 6.5 1t6.5 3q3 4 4.5 8.5t0.5 9.5t-4 8q-20 22 -52.5 34t-48 13.5t-27.5 0.5
h-486q-16 0 -30 6.5t-24.5 16.5t-16.5 24.5t-6 29.5v589q0 32 22.5 54.5t54.5 22.5h116v-27q0 -8 5.5 -13.5t13 -5.5t13 5.5t5.5 13.5v27h403v-27q0 -8 5.5 -13.5t13.5 -5.5q5 0 9 2.5t6.5 7t2.5 9.5v27h117q31 0 54 -22.5t23 -54.5v-589q0 -15 -6.5 -29.5t-16.5 -24.5
t-24.5 -16.5t-29.5 -6.5h-39q-7 0 -12.5 -5t-5.5 -13t5.5 -13t12.5 -5h39q47 0 80 33t33 80v589q0 15 -4 30t-11 27.5t-17.5 23t-23 17.5t-27.5 11.5t-30 4.5z" />
    <glyph glyph-name="uniE645" unicode="&#xe645;" 
d="M512 669q-98 1 -184 -49t-136.5 -136.5t-48.5 -183.5q-2 -74 28 -142.5t80 -118.5t119 -79.5t142 -27.5q99 0 184.5 49t135 134t49.5 185q0 99 -49.5 184t-135 135t-184.5 50zM494 142l-25 -29l-26 30l-142 164l46 50l116 -85l251 208l48 -51z" />
    <glyph glyph-name="uniE646" unicode="&#xe646;" 
d="M510 633q-157 0 -276.5 -91t-146.5 -230v-9q27 -139 146.5 -230t276.5 -91q127 0 232 62q4 2 7 5.5t4 8t0.5 8.5t-3.5 8q-4 8 -13 10.5t-17 -2.5q-47 -27 -100.5 -41t-109.5 -14q-140 0 -246.5 79t-131.5 202q25 122 131.5 201t246.5 79t246.5 -79t131.5 -201
q-18 -88 -82 -157q-6 -7 -5.5 -16t6.5 -15q5 -5 10.5 -6t11.5 0.5t10 6.5q74 80 94 183q1 4 0 8q-27 139 -146.5 230t-276.5 91zM510 415q-37 49 -83 49q-49 0 -83 -37.5t-34 -89.5q0 -6 0.5 -12t2 -12t3.5 -12t5 -12.5t6 -12.5t6.5 -12t7.5 -11t8.5 -10t9.5 -9
q23 -29 80 -78t72 -49q13 0 69 47.5t82 79.5q20 18 34.5 48t14.5 55q0 52 -34.5 89.5t-82.5 37.5q-47 0 -84 -49zM666 337q0 -11 -5 -24.5t-13 -26t-17 -20.5l-2 -2l-1 -1q-5 -7 -11.5 -14t-13 -13.5t-14 -13.5t-14.5 -13.5t-15 -13t-14.5 -11.5t-13 -10.5t-12 -9.5t-9.5 -7
q-83 60 -119 106q0 1 -1 1.5t-1 1.5q-14 12 -25 33.5t-11 37.5t6 31.5t15.5 26.5t23 17.5t28.5 6.5q17 0 34.5 -17t28.5 -39q6 -12 20.5 -12t19.5 12q11 22 28.5 39t35.5 17q30 0 51 -24t21 -58z" />
    <glyph glyph-name="uniE647" unicode="&#xe647;" 
d="M857 -156l-443 443l443 444v1l-69 69l-515 -514l515 -514l69 70v1z" />
    <glyph glyph-name="uniE648" unicode="&#xe648;" 
d="M502.5 747q94.5 0 161 -65.5t66.5 -157.5q0 -46 -18 -87.5t-48.5 -71.5t-72.5 -47.5t-88 -17.5q-95 0 -161.5 65.5t-66.5 158t66.5 158t161 65.5zM502.5 747q94.5 0 161 -65.5t66.5 -157.5q0 -46 -18 -87.5t-48.5 -71.5t-72.5 -47.5t-88 -17.5q-95 0 -161.5 65.5
t-66.5 158t66.5 158t161 65.5zM417 225h190q80 0 147.5 -38.5t106.5 -105t39 -144.5v-19q0 -9 -3.5 -17t-11.5 -14t-17 -11t-24 -8.5t-29 -6t-35 -4t-38 -2.5t-42.5 -1.5t-45.5 -0.5h-47h-190h-79q-26 0 -67.5 2t-62 6t-43.5 11t-32 18.5t-9 27.5v19q0 119 86 203.5
t207 84.5z" />
    <glyph glyph-name="uniE649" unicode="&#xe649;" 
d="M647 513h-377q-4 0 -8 2t-7 5t-5 7t-2 8q0 9 6.5 15.5t15.5 6.5h377q9 0 15 -6.5t6 -15.5t-6 -15.5t-15 -6.5zM599 389h-329q-9 0 -15.5 6t-6.5 15t6.5 15.5t15.5 6.5h329q9 0 15.5 -6.5t6.5 -15.5q0 -4 -1.5 -8t-4.5 -7t-7 -4.5t-9 -1.5zM719 267h-449q-9 0 -15.5 6.5
t-6.5 15.5t6.5 15t15.5 6h449q9 0 15.5 -6t6.5 -15q0 -4 -1 -7.5t-3 -6t-4.5 -4.5t-6 -3t-7.5 -1zM848 13h-332q-9 0 -15.5 6.5t-6.5 15.5t6.5 15.5t15.5 6.5h332q9 0 15.5 -6.5t6.5 -15.5q0 -4 -2 -8.5t-5 -7t-7 -4.5t-8 -2zM626 -145h-418q-27 0 -46.5 19.5t-19.5 46.5
v758q0 10 3.5 20t9.5 18.5t14 14.5t18 9.5t21 3.5h604q27 0 46.5 -19.5t19.5 -46.5v-501q0 -6 -3 -11t-8 -8t-11 -3t-11 3t-8 8t-3 11v501q0 9 -6.5 15.5t-15.5 6.5h-604q-9 0 -16 -6.5t-7 -15.5v-758q0 -9 7 -15.5t16 -6.5h418q4 0 8 -1.5t7 -4.5t5 -7t2 -9
q0 -9 -6.5 -15.5t-15.5 -6.5zM705 -142q-4 0 -8 1.5t-8 4.5q-6 6 -6 15.5t6 15.5l141 140l-141 140q-6 7 -6 16t6.5 15t15.5 6t15 -6l156 -156q2 -2 3.5 -5t2 -6.5t0 -7t-2 -6.5t-3.5 -5l-156 -156q-6 -6 -15 -6z" />
    <glyph glyph-name="uniE64A" unicode="&#xe64a;" 
d="M718 812h-631v-1013h6l424 200l424 -200h6v817q0 23 -6 45t-17 41.5t-27 36.5t-36 30t-42.5 23t-48 15t-52.5 5zM880 -98l-334 157l-4 2q-2 1 -4 1l-4 2q-2 0 -4.5 0.5t-4.5 1t-4 0.5h-4q-15 0 -29 -7l-334 -157v843h564q67 0 114.5 -38t47.5 -91v-714zM742 495l-96 14
q-9 2 -20.5 10t-15.5 17l-44 92q-17 35 -49 35q-7 0 -14 -1.5t-17.5 -10t-17.5 -23.5l-44 -92q-3 -6 -9 -12t-13.5 -10t-13.5 -5l-96 -14q-38 -6 -48 -37q-5 -14 -0.5 -29t17.5 -28l70 -71q3 -3 5.5 -7t4.5 -9t3 -10t1.5 -9.5t-0.5 -8.5l-17 -102q-5 -30 12 -49q3 -5 8 -8
t10.5 -5t11.5 -3t12.5 -0.5t13 3t13.5 5.5l86 47q8 4 22 4q7 0 13 -1t9 -3l86 -47q16 -9 32 -9q23 0 37 17q16 19 12 49l-17 102q-2 9 2.5 23t11.5 21l70 71q9 8 14 18t5.5 20t-2.5 19q-5 15 -17.5 24.5t-30.5 12.5zM655 377q-18 -18 -27.5 -47.5t-5.5 -54.5l13 -77l-64 35
q-15 8 -34.5 11t-39.5 0t-34 -11l-64 -35l13 77q4 25 -5.5 54.5t-27.5 47.5l-54 55l73 11q17 2 34 11.5t31 23t22 29.5l32 67l32 -67q8 -16 22 -29.5t31 -23t34 -11.5l73 -11z" />
    <glyph glyph-name="uniE64B" unicode="&#xe64b;" 
d="M855 570q-3 3 -7 4l-283 164q-58 29 -114 -1l-282 -163l-6 -4q-27 -16 -42 -43.5t-15 -58.5v-326q0 -32 15 -59t42 -44l282 -163l6 -3q27 -15 58 -15q15 0 30 3.5t28 11.5l2 1l-17 28l19 -27l179 103l107 62q26 17 40.5 43.5t14.5 56.5v328q0 20 -6.5 39.5t-19.5 35.5
t-31 27zM847 141q0 -14 -6.5 -26t-17.5 -19l-286 -165q-1 0 -1 -1h-1q-26 -14 -51 -1l-176 102l-111 64q-25 16 -25 47v326q0 31 25 46l286 166q6 3 12.5 4.5t13.5 1.5t13 -1.5t11 -3.5l284 -164l3 -2q8 -5 14 -12.5t9.5 -16.5t3.5 -18v-327zM748 229h-112q-1 1 -2 3.5
t-1.5 5.5t-0.5 6q2 3 7 5q33 22 49 36q20 15 18 33q-5 18 -25 20h-212q-25 -2 -27 -31q5 -29 29 -29h114q-2 -2 -4.5 -4t-4.5 -3q-6 -4 -10.5 -7.5t-7.5 -6t-4 -4.5q-7 -6 0 -24h-139q-26 -2 -26 -31q0 -32 26 -32h166q6 -22 4 -33q-2 -29 -80 -18q-16 2 -18 2
q-31 -2 -36 -24q0 -27 31 -34q168 -33 172 60q-2 16 -2 29v18h96q7 0 12.5 3.5t8.5 10.5t4 18q-3 29 -25 31zM750 532h-96v18q-31 47 -62 0v-18h-154v23q-3 18 -32 18q-14 -2 -21.5 -7t-7.5 -14v-20h-98q-24 -2 -27 -33q5 -29 29 -29h94v-9q0 -15 4.5 -22.5t13.5 -8.5h-123
q-7 -1 -12.5 -5t-8 -10.5t-3.5 -16.5q2 -29 27 -29h125q-40 -44 -130 -111q-16 -14 -18 -27.5t9 -28.5q25 -18 58 11v-138q0 -29 29 -31q29 2 31 31v190q48 47 101 102h266q24 0 26 27q0 8 -1.5 14t-4 10t-6.5 6.5t-10 2.5h-105q3 1 5.5 3.5t4 7t1.5 10.5v22h94q7 0 12.5 3
t8.5 9.5t4 16.5q-3 31 -23 33zM516 427q7 34 -31 38q-20 0 -41 -35h-20q14 11 14 24v16h154v-14q0 -24 13 -29h-89z" />
    <glyph glyph-name="uniE64C" unicode="&#xe64c;" 
d="M512 -212q-104 0 -199 40.5t-163.5 109t-109 163.5t-40.5 199t40.5 199t109 163.5t163.5 109t199 40.5t199 -40.5t163.5 -109t109 -163.5t40.5 -199t-40.5 -199t-109 -163.5t-163.5 -109t-199 -40.5zM512 684q-159 0 -271.5 -112.5t-112.5 -271.5t112.5 -271.5
t271.5 -112.5t271.5 112.5t112.5 271.5t-112.5 271.5t-271.5 112.5z" />
    <glyph glyph-name="uniE64D" unicode="&#xe64d;" horiz-adv-x="1000" 
d="M500 300zM75 300q0 115 57 213t155 155t213 57q86 0 165 -33.5t136 -90.5t90.5 -136t33.5 -165t-33.5 -165t-90.5 -136t-136 -90.5t-165 -33.5q-164 0 -286 110q-117 107 -136 263q-3 27 -3 52z" />
    <glyph glyph-name="uniE64E" unicode="&#xe64e;" 
d="M750 407h-66q0 79 -54 133.5t-132 54.5q-51 0 -93.5 -24.5t-67 -68t-24.5 -95.5h-66q0 23 5 47t14.5 46.5t23 43t30.5 38.5t37.5 32.5t43 25t47.5 16t50 5.5q51 0 98 -22t80.5 -57t53.5 -81.5t20 -93.5zM789 298q0 27 -19.5 46.5t-46.5 19.5h-443q-28 0 -47.5 -19.5
t-19.5 -46.5v-316q0 -27 19.5 -46.5t47.5 -19.5h443q27 0 46.5 19.5t19.5 46.5v316zM555 51q0 -20 -15 -35t-35 -15h-7q-21 0 -35.5 15t-14.5 35v135q0 21 14.5 35.5t35.5 14.5h7q21 0 35.5 -14.5t14.5 -35.5v-135z" />
    <glyph glyph-name="uniE64F" unicode="&#xe64f;" 
d="M875 478l-176 161q-9 9 -22 12t-25.5 0t-22.5 -12l-438 -402q-11 -26 -28 -114t-28 -157q2 -2 6 -6.5t7.5 -7.5t7.5 -5q43 6 150 31.5t130 33.5l439 402q9 9 12.5 20.5t0 23.5t-12.5 20zM208 -4l-17 16l15 82l85 -78zM401 44l-55 -14l-130 120l10 55l350 322l36 -32
l-333 -306l35 -32l333 305l35 -32l-263 -241l35 -32l263 241l35 -32zM787 398l-175 161l52 48l175 -161z" />
    <glyph glyph-name="uniE650" unicode="&#xe650;" 
d="M-53 874zM881 243q60 45 91.5 103t31.5 123t-32 125t-86 103t-129 68t-157 25q-110 0 -203.5 -43t-147.5 -117t-54 -161q0 -73 40 -138q-96 -24 -156.5 -88t-60.5 -144q0 -102 99 -174q10 -22 -1 -62t-32 -60q3 0 8.5 1t21 6.5t30 12t31.5 20t30 28.5q46 -16 126 -16
q129 0 221 71.5t92 172.5q0 13 -1.5 25t-4.5 24q19 1 35.5 3t34.5 5t36 9q26 -29 64.5 -49t56.5 -25t29 -6l78 -13l-55 58q-18 18 -29.5 55t-6.5 58zM231 56q-11 0 -20 5t-14.5 14t-5.5 19q0 17 11.5 28.5t28 11.5t27.5 -11.5t11 -27.5t-11 -27.5t-27 -11.5zM334 56
q-16 0 -27 11.5t-11 26.5q0 6 1 11t3.5 9t6 8t8 6.5t9.5 4t10 1.5q8 0 16 -3.5t12.5 -8.5t8 -12t3.5 -16q0 -15 -11.5 -26.5t-28.5 -11.5zM439 56q-11 0 -20.5 5t-14.5 14t-5 19q0 17 12 28.5t28 11.5q8 0 15 -3.5t12.5 -8.5t8.5 -12t3 -16q0 -15 -11.5 -26.5t-27.5 -11.5z
M841 158q-43 21 -69 53l-11 16l-18 -7q-49 -18 -127 -19q-39 64 -115.5 103.5t-169.5 39.5q-20 0 -40 -3q-43 60 -43 128q0 73 47.5 135t128 97.5t176 35.5t176.5 -35.5t128.5 -97.5t47.5 -135q0 -110 -109 -187l-6 -5l-3 -6q-9 -23 -6.5 -52.5t13.5 -60.5zM456 515
q-22 0 -37.5 -15.5t-15.5 -37.5q0 -15 7 -27.5t19 -20t26.5 -7.5t27 7.5t20 20t7.5 27.5q0 22 -16 37.5t-38 15.5zM597 515q-14 0 -26.5 -7.5t-19.5 -19.5t-7 -26.5t7 -27t19.5 -20t26.5 -7.5t27 7.5t20 20t7 27.5q0 22 -16 37.5t-38 15.5zM738 515q-14 0 -26 -7.5
t-19.5 -19.5t-7.5 -26q0 -22 15.5 -38t37.5 -16q11 0 21 4t17 11.5t11 17.5t4 21q0 22 -15.5 37.5t-37.5 15.5z" />
    <glyph glyph-name="uniE651" unicode="&#xe651;" 
d="M875 43q13 -10 13.5 -28.5t-10.5 -26.5q-4 -4 -8 -7t-8.5 -6.5t-9.5 -7.5l-10 -8q-6 -6 -13 -11.5t-14.5 -11t-14.5 -11.5q-5 -4 -10 -9l-12 -8q-5 -5 -10 -9t-11 -9q-20 -17 -38 -30q-11 -9 -18.5 -13.5t-11.5 -5.5q-9 -1 -9 27v46q0 8 -2 15.5t-6.5 13t-10 8t-12.5 2.5
h-118q-5 0 -9.5 1.5t-9.5 3.5t-9 6q-14 10 -14 26v52q0 14 2 22.5t7 12.5q9 6 33 6h20q10 0 21 -0.5t28 -0.5h43q7 0 12 0.5t9.5 2t7.5 4.5q2 1 3.5 3.5t2.5 6t1.5 7.5t0.5 8v45q0 18 6.5 23t22.5 -8q15 -11 38 -29q12 -10 22.5 -18.5t21.5 -16.5l45 -36q23 -19 39 -31v0z
M443 -47q-19 15 -19 38v74q0 20 3 32t10 17q21 14 46 14l91 3h14h12q3 0 7.5 1t7.5 4q13 10 13 36v59q3 30 33.5 36.5t55.5 -15.5q48 -39 117 -91q4 -4 14 -11q1 3 1 5v534q0 20 -12 33.5t-28 13.5h-599q-5 0 -10 -1.5t-9.5 -4.5t-8.5 -7q-12 -14 -12 -34v-697q0 -5 1 -9
t2.5 -8.5t3.5 -8t5 -7.5q4 -4 8.5 -7t9.5 -5t10 -2h246q-7 4 -13 8zM227 617q0 7 6.5 11.5t15.5 4.5h521q4 0 8.5 -1t7.5 -3.5t4.5 -5t1.5 -6.5v-32q0 -7 -6.5 -11.5t-15.5 -4.5h-521q-4 0 -8 1.5t-7 3.5t-5 5t-2 6v32zM227 488q0 6 6.5 11t15.5 5h521q9 0 15.5 -5t6.5 -11
v-33q0 -4 -3 -7.5t-8 -6t-11 -2.5h-521q-9 0 -15.5 5t-6.5 11v33zM227 333v32q0 7 6.5 11.5t15.5 4.5h521q9 0 15.5 -4.5t6.5 -11.5v-32q0 -4 -3 -8t-8 -6t-11 -2h-521q-3 0 -5.5 0.5t-5 1.5t-4.5 2.5t-3.5 3.5t-2.5 4t-1 4z" />
    <glyph glyph-name="uniE652" unicode="&#xe652;" 
d="M514 755l160 -294l326 -63l-227 -245l41 -333l-300 143l-300 -143l41 333l-227 245l326 63z" />
    <glyph glyph-name="uniE653" unicode="&#xe653;" 
d="M744 220h-99q-3 0 -5.5 0.5t-3.5 0.5q1 2 3.5 4t5.5 4l70 44q6 4 10.5 12.5t4.5 15.5v3q0 5 -2.5 10t-7.5 7.5t-10 2.5h-224q-9 0 -15 -6t-6 -14v-3q0 -5 3 -10t7.5 -7.5t10.5 -2.5h161l-45 -29q-15 -10 -15 -25q-1 -6 -11 -7h-117q-8 0 -14 -6t-6 -14v-4q0 -8 6 -14
t14 -6h117q3 0 5 -1t3 -2.5t2 -3.5t1 -4v-44q0 -23 -21 -23q-9 0 -18.5 0.5t-20 1t-21.5 1t-22 1.5h-6l1 -6q4 -21 6 -40l1 -4h26h20h15h16h13q58 0 58 63v50q0 2 1 4t2.5 3.5t3.5 2.5t4 1h99q3 0 6 1t5.5 2.5t4.5 4.5t3 6t1 6v3q0 9 -6 15t-14 6zM512 745
q-91 0 -173.5 -35.5t-142.5 -95t-95.5 -142.5t-35.5 -173q0 -73 23 -141t64 -123t96 -96.5t123 -64t141 -22.5q91 0 173.5 35.5t142.5 95.5t95.5 142.5t35.5 173t-35.5 173.5t-95.5 142.5t-142.5 95t-173.5 35.5zM894 298.5q0 -103.5 -51.5 -191.5t-139.5 -139t-191.5 -51
t-191 51t-139 139t-51.5 191.5t51.5 191.5t139 139t191 51t191.5 -51t139.5 -139t51.5 -191.5zM744 497h-97q-3 0 -5.5 1.5t-4 4t-1.5 5.5v13q0 9 -6 15t-15 6h-6q-8 0 -14 -6t-6 -15v-13q0 -3 -1.5 -5.5t-4 -4t-5.5 -1.5h-106q-4 0 -7.5 3.5t-3.5 7.5v13q0 3 -1 6t-3 5.5
t-4.5 4.5t-5.5 3t-6 1h-7q-5 0 -10 -2.5t-7.5 -7.5t-2.5 -10v-13q0 -4 -3 -7.5t-8 -3.5h-99q-4 0 -8 -1.5t-6.5 -4t-4 -6.5t-1.5 -8v-3q0 -9 6 -15t14 -6h99q5 0 8 -3t3 -7q0 -5 2.5 -9.5t6.5 -7.5t9 -3q-2 -4 -4 -7.5t-3.5 -6.5t-2.5 -7h-117q-8 0 -14 -5.5t-6 -14.5v-3
q0 -4 1.5 -8t4 -7t6.5 -4.5t8 -1.5h91q-53 -85 -124 -143l-4 -3l3 -4q5 -7 10.5 -15t12.5 -18l3 -4l4 3q33 28 64 64v-167q0 -5 2.5 -10t7 -7.5t10.5 -2.5h6q9 0 15 6t6 14v228q20 30 36 59h289q8 0 14 6t6 15v3q0 6 -2.5 10.5t-7.5 7t-10 2.5h-265q2 5 4 8.5t3 7.5l4 7h-32
q10 6 10 18q0 4 3.5 7t7.5 3h106q4 0 7.5 -3t3.5 -8v-5q0 -5 2.5 -9.5t7.5 -7.5t10 -3h6q9 0 15 6t6 14v5q0 5 3 8t8 3h97q4 0 8 1.5t6.5 4.5t4 6.5t1.5 8.5v3q0 6 -2.5 10.5t-7.5 7t-10 2.5z" />
    <glyph glyph-name="uniE654" unicode="&#xe654;" 
d="M437 151q0 -31 -22 -53t-53 -22q-30 0 -52 22t-22 53q0 20 10 37.5t27 27.5t37 10q31 0 53 -22t22 -53zM735.5 119q-13.5 0 -22.5 9.5t-9 22.5q0 141 -100 241q-16 16 -34 30t-37 25t-39.5 19.5t-42 14.5t-44 8.5t-45.5 2.5q-13 0 -22 9.5t-9 22.5t9 22.5t22 9.5
q83 0 158 -32q73 -31 129 -87t86 -128q32 -76 32 -158q0 -13 -9 -22.5t-22.5 -9.5zM586 119q-13 0 -22 9.5t-9 22.5q0 79 -56.5 135.5t-136.5 56.5q-13 0 -22 9.5t-9 22.5t9 22.5t22 9.5q52 0 98.5 -19.5t82.5 -55.5q75 -75 75 -181q0 -13 -9.5 -22.5t-22.5 -9.5z
M511.5 -179q-32.5 0 -64 4t-62 12.5t-60.5 20.5q-86 37 -152.5 103.5t-102.5 152.5q-38 89 -38 186.5t38 186.5q18 43 44 81t59 71q66 67 152 103q89 38 186.5 38t186.5 -38q86 -36 153 -103q16 -16 31 -34t27.5 -37t23.5 -39.5t20 -41.5q38 -89 38 -187q0 -48 -9.5 -95
t-28.5 -91q-36 -86 -102 -153q-33 -33 -71.5 -58.5t-81.5 -44.5q-29 -12 -60 -20.5t-62.5 -12.5t-64 -4zM512 716q-42 0 -83 -8t-79 -24q-37 -16 -70.5 -38.5t-62 -51t-51 -62t-38.5 -70.5q-32 -77 -32 -161.5t32 -162.5q32 -74 89.5 -131.5t132.5 -89.5q77 -33 161.5 -33
t162.5 33q74 32 131.5 89.5t89.5 131.5q33 78 33 162.5t-33 161.5q-32 75 -89.5 132.5t-131.5 89.5q-78 32 -162 32z" />
    <glyph glyph-name="uniE655" unicode="&#xe655;" 
d="M962 549l-465 202q-6 3 -12 0l-424 -191q-4 -1 -6 -5t-2 -8v-474q0 -10 8 -14l439 -209l6 -2q4 0 7 2l449 219q4 2 6 5.5t2 7.5v454q0 9 -8 13zM491 722l433 -189l-412 -177l-423 182h-2q-1 0 -2 1zM82 508l415 -178v-446l-415 198v426zM526 -111v441l415 178v-417z
M376 281l-168 73q-14 5 -20 -8.5t8 -19.5l169 -72q3 -1 6 -1q4 0 7.5 2t5.5 7q6 13 -8 19z" />
    <glyph glyph-name="uniE656" unicode="&#xe656;" 
d="M781 149l43 -344l-312 147l-312 -147l43 344l-236 253l338 66l167 303l167 -303l338 -66zM648 425l-136 252l-136 -252l-275 -54l192 -210l-35 -285l254 122l254 -122l-35 285l192 210z" />
    <glyph glyph-name="uniE657" unicode="&#xe657;" 
d="M1025 428h-384l143 143q-54 55 -124 84t-147 29q-52 0 -100.5 -13t-92 -38.5t-79.5 -61.5q-55 -54 -84 -124.5t-29 -147.5t29 -147t84 -124q36 -37 79.5 -62t92 -38t100.5 -13q77 0 147 29t124 84q5 4 9.5 8.5t8.5 9.5l96 -84q-71 -82 -171.5 -128.5t-213.5 -46.5
q-105 0 -200 40.5t-163.5 109t-109 163.5t-40.5 199.5t40.5 199.5t109 163.5t163.5 109t199.5 40.5t198 -39.5t164.5 -110.5l150 150v-384z" />
    <glyph glyph-name="uniE658" unicode="&#xe658;" 
d="M906 529q-30 51 -71 91q-21 21 -44.5 39t-47.5 33l56 56q9 0 23.5 -1t47.5 -11t51 -29q39 -40 41 -122zM404 20h-170v170l20 21q56 -27 100 -71t71 -100zM859 482l-385 -393q-32 53 -75 95q-43 44 -96 75l393 386q54 -25 96 -67t67 -96zM177 636v-673h673v280l112 113
v-423q0 -34 -24 -58t-57 -24h-735q-33 0 -57 24t-24 58v734q0 33 24 57t57 24h424l-113 -112h-280z" />
    <glyph glyph-name="uniE659" unicode="&#xe659;" 
d="M512 747q-91 0 -173.5 -35t-142.5 -95t-95.5 -143t-35.5 -174t35.5 -173.5t95.5 -142.5t142.5 -95.5t173.5 -35.5t173.5 35.5t142.5 95.5t95.5 142.5t35.5 173.5q0 170 -113 297q-109 123 -271 146q-32 4 -63 4zM512 -87q-105 0 -194.5 51.5t-141.5 141t-52 195t52 194.5
t141.5 141t194.5 52q79 0 150.5 -30.5t123.5 -82.5t82.5 -124t30.5 -151q0 -105 -51.5 -194.5t-141 -141t-194.5 -51.5zM328 212zM487 582zM381 383v14q0 53 38 91t91 38t90.5 -38t37.5 -91v-14v-49h44v56q0 46 -23 86t-63 63t-86.5 23t-86 -23t-62.5 -63t-23 -86v-56h43v49
zM326 36h370q16 0 27 11t11 26v224q0 10 -5 18.5t-13.5 13.5t-19.5 5h-14h-44h-257h-43h-12q-15 0 -26 -11t-11 -26v-224q0 -10 5 -18.5t13.5 -13.5t18.5 -5z" />
    <glyph glyph-name="uniE65A" unicode="&#xe65a;" 
d="M0 812v-1024h1024v1024h-1024zM960 -148h-896v896h896v-896zM314 -4l198 104l198 -104l-38 220l160 156l-221 32l-99 200l-99 -200l-221 -32l160 -156z" />
    <glyph glyph-name="uniE65B" unicode="&#xe65b;" 
d="M920 299q0 66 -20.5 128.5t-58.5 112.5t-88 87.5t-112.5 58.5t-128.5 21q-111 0 -205 -55t-148.5 -149t-54.5 -204q0 -83 32.5 -158.5t87 -130.5t130 -87t158.5 -32q136 0 246 83q2 3 3 6t1 6q0 7 -5 12.5t-13 5.5t-13 -6q-31 -22 -65.5 -38t-73.5 -25t-80 -9
q-100 0 -185 49.5t-134.5 135t-49.5 185.5t49.5 185t134.5 134.5t185 49.5q51 0 98.5 -13t88 -37t75 -58t58 -74.5t37 -88.5t13.5 -98q0 -94 -42 -173q-1 -4 -1 -5q0 -8 5 -13t13 -5q12 0 17 12q46 89 46 187zM681 378l-158 -160l-155 157q-7 7 -16.5 7.5t-16 -5.5t-6 -16
t7.5 -17l167 -168q4 -4 9 -6t10 -2q11 0 19 8l170 172q7 7 7.5 16.5t-5.5 16t-15.5 6t-17.5 -8.5z" />
    <glyph glyph-name="uniE65C" unicode="&#xe65c;" horiz-adv-x="1000" 
d="M894 611h-749q-4 0 -8 -1t-7.5 -3.5t-6 -6t-4 -8t-1.5 -8.5v-534q0 -11 8 -19t19 -8h749q4 0 8.5 1.5t7.5 4t5.5 5.5t4 7.5t1.5 8.5v534q0 6 -2 11t-5.5 8.5t-8.5 5.5t-11 2zM889 164l-211 167q97 84 211 184v-351zM889 579v-22q-300 -261 -316 -275q-25 -22 -53.5 -22
t-53.5 22q-23 20 -316 275v22h739zM364 329l-214 -169v355q132 -115 214 -186zM150 55v64l238 188q50 -43 57 -49q9 -8 18.5 -13.5t17.5 -8.5t16 -5t13 -2.5t10 -0.5q8 0 17.5 1.5t26 9t30.5 19.5q9 7 59 51l236 -186v-68h-739z" />
    <glyph glyph-name="uniE65D" unicode="&#xe65d;" 
d="M163 588l61 61l637 -637l-61 -61zM800 649l61 -61l-637 -637l-61 61z" />
    <glyph glyph-name="uniE65E" unicode="&#xe65e;" 
d="M877 481q-6 6 -14 8t-16 0t-14 -8l-319 -322l-323 320q-9 9 -22 9t-22 -9t-9 -22t9 -22l344 -341h1v-1h1q9 -9 22 -9q6 0 11.5 2.5t10.5 6.5l340 344q9 9 9 22t-9 22v0zM877 481z" />
  </font>
</defs>
</svg>
